<svg width="468" height="468" viewBox="0 0 468 468" fill="none" xmlns="http://www.w3.org/2000/svg">
<mask id="mask0_1_493" style="mask-type:alpha" maskUnits="userSpaceOnUse" x="0" y="-1" width="468" height="469">
<rect y="-0.00170898" width="467.71" height="467.71" rx="55" fill="url(#paint0_linear_1_493)"/>
</mask>
<g mask="url(#mask0_1_493)">
<rect x="-0.000518799" y="-0.00170898" width="467.71" height="467.71" rx="55" fill="#E3B748"/>
<path d="M398.004 -4.93262H454.333C454.333 -4.93262 456.32 -1.68444 457.039 0.232751L458.865 5.1031C461.133 10.8468 463.241 16.6965 465.191 22.6519C466.856 27.7391 467.52 33.1397 469.076 38.2613C469.833 40.7495 470.693 43.1982 471.167 45.5697C472.138 50.4257 472.786 52.3681 473.757 55.9291C475.976 65.9186 480.904 75.1035 488.001 82.4752L493.829 88.6261L503.217 98.3381C512.295 109.811 517.508 123.863 518.108 138.481V142.042C518.108 150.459 519.727 159.2 521.346 167.941C525.099 187.943 527.586 208.163 528.792 228.479C528.981 235.442 530.293 242.329 532.676 248.874C534.019 252.955 536.394 256.619 539.571 259.512C541.211 261.006 543.036 262.268 544.994 263.27C548.661 265.148 552.885 265.384 557.005 265.384H557.28C564.36 265.199 571.183 262.697 576.704 258.262C585.997 250.757 592.775 240.591 596.128 229.126C599.127 218.596 600.653 207.702 600.66 196.753C600.516 188.723 601.167 180.698 602.603 172.797C605.042 155.994 613.567 140.672 626.559 129.74C631.415 125.855 636.918 121.971 642.098 118.41L645.659 116.143C653.219 110.099 658.843 101.972 661.835 92.7663C664.228 85.401 664.853 77.6038 663.695 69.9999C663.117 66.204 661.707 62.4676 658.932 59.8139C656.799 57.4203 654.214 55.4728 651.325 54.0837C648.435 52.6946 645.299 51.8914 642.098 51.7206C637.786 51.4325 633.46 51.4325 629.149 51.7206H615.228C610.631 51.6683 606.06 51.0153 601.632 49.7782C583.434 44.495 567.425 33.4823 555.985 18.3761C551.477 12.6876 547.88 6.3365 545.319 -0.450346C545.114 -0.992663 544.978 -0.976329 544.978 -1.55598C544.978 -2.26516 545.553 -3.63769 546.262 -3.63769H567.791C570.213 -3.63769 572.849 -2.95658 573.791 -0.724092C577.13 6.40157 581.864 12.786 587.711 18.0524C598.331 27.0765 611.993 31.708 625.911 31.0017H630.369C633.005 31.0017 635.638 30.8122 638.247 30.4345L653.369 28.2458C657.068 27.7104 660.811 27.5906 664.548 27.6651C666.046 27.6949 667.544 27.7009 669.042 27.6828C673.511 27.629 678.317 27.123 681.532 24.0184C683.162 22.4449 684.402 20.513 685.155 18.3761C686.89 12.895 688.083 7.25653 688.716 1.54204L-nan -nanL688.716 1.54204C688.716 1.54204 688.716 0.594301 688.716 -0.400294C688.716 -1.47305 689.585 -2.34276 690.658 -2.34276H710.775C712.636 -2.34276 714.599 -1.82049 715.525 -0.205853C715.811 0.293236 716.07 0.812267 716.408 1.27802C719.618 5.70467 723.9 9.25016 728.858 11.5777C733.393 13.4838 738.042 15.1056 742.779 16.4337L-nan -nanL742.779 16.4337H746.819C747.146 16.4337 747.472 16.4731 747.789 16.5528C753.694 18.0373 759.485 19.9449 765.117 22.2609C772.178 25.1323 778.095 30.2529 781.951 36.8289C787.686 47.1738 789.848 59.122 788.102 70.8208C787.368 78.944 784.653 86.7632 780.194 93.5926C775.735 100.422 769.669 106.053 762.527 109.992C752.974 115.304 742.997 119.808 732.699 123.459C730.591 124.207 728.365 124.56 726.128 124.56C724.501 124.56 722.877 124.744 721.303 125.159C715.582 126.667 709.989 128.632 704.578 131.035C699.231 133.176 694.553 136.705 691.024 141.258C687.496 145.81 685.246 151.222 684.507 156.934C683.875 162.852 683.875 168.821 684.507 174.739V177.976C684.618 184.103 685.488 190.193 687.097 196.105C692.034 214.298 703.577 229.996 719.47 240.133C728.715 246.048 738.34 251.348 748.282 255.996L755.405 259.557C764.988 264.222 774.189 269.634 782.922 275.744C783.474 276.055 784.016 276.382 784.548 276.724C792.14 281.609 794.252 291.227 794.252 300.255V346.109C794.252 346.76 793.724 347.289 793.073 347.289C792.79 347.289 792.515 347.186 792.301 347.001C785.33 340.966 779.604 335.558 774.505 330.778C764.094 320.065 754.364 308.712 745.369 296.786C738.089 287.124 730.08 278.032 721.413 269.593L715.585 264.413C709.111 258.262 701.989 251.787 695.514 244.665C688.697 237.049 682.927 228.557 678.356 219.414C671.836 206.563 667.254 192.817 664.759 178.624L-nan -nanL664.759 178.624C663.926 171.24 662.298 163.968 659.903 156.934C659.089 154.486 657.525 152.356 655.434 150.846C653.342 149.335 650.829 148.52 648.249 148.517C646.096 148.517 643.924 148.657 641.889 149.359C640.147 149.96 638.479 150.762 636.918 151.754C629.506 156.736 624.111 164.196 621.703 172.797C618.914 181.823 617.389 191.193 617.171 200.638V204.846C615.711 222.199 610.403 239.009 601.632 254.054C595.836 264.393 587.614 273.17 577.675 279.628C569.105 284.86 559.227 287.554 549.187 287.398C544.526 287.527 539.864 287.201 535.266 286.427C530.773 285.966 526.531 284.135 523.114 281.182C519.697 278.228 517.272 274.295 516.166 269.916C514.822 264.62 514.062 259.192 513.9 253.73C513.9 248.874 513.9 244.018 513.9 239.162C513.9 234.306 513.9 228.479 513.9 222.651C513.114 211.602 510.826 200.711 507.102 190.278C502.524 177.843 497.116 165.73 490.915 154.02C485.83 141.369 476.424 130.93 464.369 124.56C460.232 122.053 455.586 120.504 450.772 120.028C445.269 120.028 440.736 123.266 435.557 131.035C428.345 142.378 420.34 153.196 411.6 163.408C402.53 173.351 392.678 182.553 382.141 190.926C375.053 196.247 368.867 202.642 363.798 209.861C359.992 215.28 356.759 221.359 354.3 227.507C353.005 230.745 350.415 235.601 348.149 239.486C341.546 252.957 329.922 263.302 315.776 268.298L303.15 272.183L285.668 278.01C277.259 280.82 269.627 285.565 263.386 291.862C257.145 298.159 252.469 305.834 249.734 314.268C246.038 323.96 244.922 334.446 246.497 344.699C248.113 353.441 252.024 361.596 257.827 368.331C269.781 382.001 280.607 396.617 290.201 412.035C292.754 416.661 295.793 421.002 299.265 424.984C301.56 428.192 304.566 430.826 308.048 432.679C311.53 434.532 315.394 435.555 319.337 435.668L-nan -nanL319.337 435.668C331.725 434.847 343.321 429.281 351.71 420.128C359.246 412.22 365.28 403.005 369.515 392.935L-nan -nanL369.515 392.935C376.079 379.521 385.081 367.446 396.061 357.324L428.435 329.159L445.916 313.62C455.743 303.817 468.946 298.142 482.822 297.757H485.735C489.545 297.678 493.324 298.45 496.797 300.019C500.269 301.587 503.348 303.911 505.807 306.822C509.31 310.763 512.152 315.246 514.224 320.095L518.108 328.188C522.447 337.625 527.311 346.812 532.676 355.706C537.724 364.033 544.585 371.115 552.748 376.424C558.485 380.026 565.077 382.037 571.848 382.252C576.079 382.201 580.258 381.321 584.15 379.662C587.974 378.156 591.658 376.314 595.157 374.158L601.632 369.95C607.135 366.712 612.638 363.151 618.142 360.562C626.039 356.421 634.801 354.203 643.717 354.087C647.37 353.612 651.07 353.612 654.724 354.087C662.853 355.359 670.368 359.18 676.186 364.998C682.004 370.816 685.825 378.331 687.097 386.46C688.251 394.078 688.251 401.827 687.097 409.445C686.522 416.266 683.799 422.73 679.32 427.907C674.842 433.083 668.837 436.707 662.17 438.257C654.585 439.653 646.896 440.411 639.184 440.524H613.286C606.811 441.244 600.567 443.352 594.981 446.704C589.394 450.056 584.596 454.573 580.913 459.948C578.941 462.746 577.22 465.709 575.768 468.802C574.324 471.878 574.28 475.694 572.059 478.266C570.927 479.577 569.356 480.43 567.64 480.666H536.747C535.87 480.666 535.029 480.057 535.226 479.202C535.25 479.099 535.273 478.995 535.285 478.89C535.422 477.651 535.416 476.401 535.266 475.163C535.266 475.163 535.266 472.573 535.266 470.954C535.401 460.117 536.267 449.302 537.856 438.581C539.13 431.432 537.749 424.064 533.971 417.862C530.709 411.694 527.757 405.368 525.127 398.907C523.866 395.81 522.416 392.791 520.683 389.932L519.419 387.846C517.686 384.986 516.226 381.97 515.006 378.855C511.94 371.031 508.613 363.206 504.835 355.382C501.265 347.989 496.69 341.126 491.239 334.987C488.746 332.009 485.624 329.623 482.097 327.999C478.57 326.376 474.726 325.556 470.844 325.598L-nan -nanL470.844 325.598C463.767 326.036 456.942 328.385 451.096 332.397C442.031 338.224 433.614 345.022 425.197 351.497L419.694 355.706C411.476 361.974 403.984 369.141 397.356 377.072C390.245 387.014 384.577 397.914 380.522 409.445C373.535 426.604 363.561 442.387 351.062 456.063C345.072 462.173 340.702 469.678 338.344 477.895C338.189 478.432 338.255 479.004 338.327 479.558C338.467 480.628 337.403 481.314 336.323 481.314H297.999C297.089 481.314 296.352 480.576 296.352 479.667C296.352 479.471 296.317 479.277 296.248 479.095C293.539 471.93 289.028 465.606 283.172 460.722C281.443 459.28 279.743 457.793 278.269 456.091C276.947 454.566 275.462 453.191 273.863 451.96C267.741 447.248 261.85 442.243 256.209 436.962C246.667 426.931 238.003 416.1 230.31 404.589C223.752 394.348 215.42 385.359 205.706 378.043C200.872 374.529 196.423 370.514 192.433 366.065C184.664 357.648 177.542 348.907 170.42 340.166L163.621 331.749C157.023 324.981 151.362 317.359 146.787 309.088C139.684 291.622 136.162 272.907 136.428 254.054C136.181 241.386 137.707 228.746 140.96 216.501C143.255 207.607 144.558 198.487 144.845 189.307C144.442 174.394 140.325 159.818 132.867 146.898C129.527 141.309 124.78 136.694 119.099 133.513C113.419 130.332 107.003 128.696 100.493 128.769H97.256C87.3569 129.183 77.7003 131.958 69.0913 136.862C60.9728 141.208 53.2777 146.302 46.1062 152.078C29.8893 164.747 10.7757 173.179 -9.50995 176.616C-9.76905 176.66 -10.0316 176.681 -10.2944 176.681C-12.937 176.681 -15.0792 174.539 -15.0792 171.897V154.473C-15.0792 148.859 -10.5281 144.308 -4.914 144.308C-4.1396 144.308 -3.36719 144.222 -2.61497 144.038C2.87071 142.696 8.23108 140.892 13.409 138.647C16.0201 137.514 18.6677 136.464 21.3638 135.552C27.9595 133.323 34.389 130.623 40.6028 127.474L47.0774 124.56C62.5524 117.144 79.4503 113.168 96.6085 112.906C101.135 112.588 105.679 112.588 110.205 112.906C117.036 113.772 123.552 116.287 129.193 120.236C134.833 124.184 139.427 129.446 142.579 135.567C149.675 148.487 154.597 162.487 157.147 177.005C158.471 184.934 158.682 193.002 157.779 200.975C157.438 203.993 157.238 207.036 156.774 210.037C156.077 214.549 154.558 218.924 153.585 223.299C153.56 223.412 153.536 223.521 153.513 223.629C152.633 227.708 153.055 231.817 152.335 235.928C150.428 246.819 150.083 257.937 151.319 268.945C152.4 280.888 156.349 292.394 162.831 302.483C169.313 312.572 178.135 320.946 188.549 326.893C193.084 329.867 198.345 331.546 203.764 331.749C207.597 331.604 211.33 330.488 214.614 328.507C217.898 326.525 220.625 323.742 222.541 320.419C226.515 315.194 230.086 309.675 233.224 303.908L237.109 297.757C245.849 283.72 258.433 272.485 273.367 265.384L292.143 257.291L303.474 254.054C311.618 250.892 318.75 245.578 324.11 238.679C329.47 231.78 332.855 223.555 333.905 214.882C335.249 205.992 335.791 196.999 335.523 188.012C335.031 184.685 335.031 181.304 335.523 177.976C335.969 175.131 337.306 172.501 339.342 170.465C340.362 169.445 341.53 168.601 342.8 167.956C345.339 166.666 348.284 166.646 351.132 166.646H358.832C364.155 166.572 369.4 165.348 374.206 163.057C379.011 160.766 383.264 157.462 386.673 153.373C390.368 148.905 393.107 143.727 394.722 138.159C396.336 132.591 396.792 126.751 396.061 120.999C393.416 107.072 389.179 93.4939 383.436 80.5328L380.522 73.7344C378.032 66.448 375.982 59.02 374.383 51.4907C373.686 48.2065 372.668 44.9905 371.968 41.7069C371.249 38.3377 371.071 34.8646 371.45 31.4188C372.013 26.2947 373.791 21.3792 376.637 17.0812C379.7 12.5728 383.286 8.44338 387.32 4.77936C389.47 2.845 391.254 0.532783 393.318 -1.49295C394.702 -2.85219 396.279 -4.01216 398.004 -4.93262M408.958 -4.93262C401.76 -4.93262 394.381 -3.52875 388.999 1.25008C387.167 2.87647 385.347 4.52589 383.47 6.09991C379.777 9.19601 376.403 12.6576 373.4 16.4337C370.302 21.1741 368.391 26.5904 367.828 32.225C367.264 37.8596 368.065 43.5471 370.163 48.807C373.4 59.1665 377.932 69.2022 382.141 79.2379C388.274 91.6027 392.945 104.64 396.061 118.086C397.086 123.495 396.939 129.06 395.632 134.407C394.324 139.755 391.885 144.76 388.48 149.085C385.075 153.411 380.782 156.956 375.891 159.483C371.001 162.009 365.625 163.458 360.127 163.732H352.278C349.314 163.732 346.256 163.773 343.601 165.09C342.163 165.804 340.84 166.75 339.691 167.9C337.483 170.107 336.026 172.953 335.523 176.034C335.027 179.469 335.027 182.958 335.523 186.393C336.328 195.224 336.328 204.109 335.523 212.939C334.535 221.424 331.235 229.475 325.983 236.212C320.73 242.948 313.728 248.113 305.74 251.14C295.704 255.672 285.345 259.233 275.633 264.089C260.461 271.087 247.642 282.331 238.727 296.463C234.402 304.17 229.646 311.627 224.483 318.8C222.685 321.988 220.109 324.669 216.996 326.594C213.883 328.518 210.333 329.624 206.678 329.807C201.516 329.558 196.502 327.998 192.11 325.275C181.522 319.785 172.409 311.832 165.536 302.086C158.663 292.339 154.231 281.085 152.614 269.269C151.084 256.287 151.851 243.137 154.88 230.421C156.823 222.328 158.765 214.234 160.06 206.141C161.522 196.593 161.522 186.877 160.06 177.329C157.415 162.63 152.5 148.432 145.492 135.244C142.251 129.131 137.644 123.848 132.03 119.806C127.647 116.65 122.742 114.317 117.555 112.905C114.638 112.111 111.6 111.935 108.577 111.935H99.1984C80.8504 111.846 62.7508 116.177 46.43 124.56C36.6435 129.672 26.4682 134.002 15.9991 137.51C9.43052 139.242 2.70788 140.327 -4.07233 140.747H-11.6501C-11.9913 140.747 -12.3301 140.677 -12.664 140.607C-13.9104 140.346 -14.7555 141.598 -14.7555 142.872V174.155C-14.7555 175.277 -14.0027 176.372 -12.903 176.146C-12.6262 176.089 -12.3452 176.034 -12.0626 176.034H-10.3755C-9.62794 176.034 -8.88127 175.971 -8.14602 175.836C12.0646 172.119 31.1063 163.645 47.4012 151.107C54.5106 145.558 61.9721 140.475 69.7387 135.891C78.315 131.236 87.8325 128.58 97.5797 128.122H99.8459C106.322 127.812 112.76 129.277 118.465 132.358C124.17 135.438 128.926 140.018 132.219 145.603C140 158.829 143.925 173.967 143.55 189.307C143.556 199.148 142.249 208.947 139.665 218.443C136.435 230.03 134.908 242.026 135.133 254.054C135.124 273.22 139.093 292.181 146.787 309.736C150.864 318.011 155.977 325.735 162.003 332.721C171.391 344.375 180.455 356.353 191.138 367.36C195.251 371.784 199.688 375.896 204.412 379.662C213.948 386.819 222.164 395.583 228.691 405.56C236.331 417.199 245.116 428.044 254.914 437.934C262.319 444.833 270.101 451.318 278.223 457.358C285 462.227 290.199 468.971 293.185 476.752C293.357 477.201 293.551 477.644 293.809 478.05C294.999 479.919 297.254 480.666 299.47 480.666H331.555C334.33 480.666 337.424 479.793 338.113 477.105C340.431 468.834 344.77 461.269 350.739 455.092C363.331 441.182 373.409 425.189 380.522 407.827C384.274 396.228 389.847 385.3 397.032 375.453C403.577 367.445 411.079 360.27 419.37 354.087C429.406 345.994 439.765 337.9 451.743 330.778C457.401 326.919 464.006 324.68 470.844 324.304C474.537 324.361 478.177 325.198 481.524 326.76C484.871 328.323 487.851 330.574 490.267 333.368C495.637 339.452 500.206 346.197 503.864 353.439C510.015 365.741 514.547 379.014 519.403 391.64C522.604 399.832 526.28 407.831 530.41 415.596C533.982 421.518 535.249 428.547 533.971 435.344C532.335 446.059 531.469 456.878 531.382 467.717C531.382 470.631 531.382 473.221 531.382 475.81C531.382 478.269 534.299 478.724 536.758 478.724H562.969C566.015 478.724 569.409 477.986 570.553 475.163C572.406 470.376 574.796 465.815 577.675 461.566C581.377 456.266 586.192 451.84 591.784 448.596C597.377 445.353 603.61 443.371 610.049 442.79C614.905 442.79 620.084 442.79 625.264 442.79C636.118 442.725 646.947 441.75 657.637 439.876C664.634 438.461 670.966 434.774 675.65 429.388C680.334 424.001 683.106 417.218 683.536 410.093C684.507 402.353 684.507 394.523 683.536 386.784C682.517 378.321 678.83 370.402 673.01 364.174C667.189 357.947 659.537 353.733 651.163 352.145C647.4 351.687 643.595 351.687 639.832 352.145C630.705 352.219 621.723 354.437 613.61 358.619C605.84 362.504 598.394 367.684 590.625 372.216C587.124 374.37 583.441 376.212 579.618 377.719C575.996 379.502 571.999 380.39 567.963 380.309C561.406 380.027 555.04 378.017 549.511 374.482C541.56 369.397 534.908 362.524 530.087 354.411C523.172 342.952 517.008 331.057 511.634 318.8C509.338 313.899 506.398 309.327 502.893 305.203C500.351 302.201 497.173 299.801 493.59 298.178C490.007 296.554 486.108 295.747 482.174 295.815H478.937C464.699 296.138 451.134 301.935 441.06 312.002L392.5 355.706C381.516 365.948 372.516 378.13 365.954 391.64C361.569 401.803 355.433 411.117 347.825 419.157C339.961 427.882 329.092 433.316 317.394 434.373L-nan -nanL317.394 434.373C313.635 434.2 309.964 433.178 306.656 431.384C303.348 429.589 300.489 427.07 298.294 424.013C294.911 420.15 291.978 415.914 289.553 411.388C279.892 396.016 269.069 381.405 257.18 367.684C251.544 361.005 247.75 352.97 246.173 344.375C244.653 334.334 245.769 324.071 249.41 314.592C252.477 306.22 257.477 298.69 264.002 292.615C270.527 286.54 278.394 282.09 286.963 279.628C296.999 275.744 307.035 273.154 317.071 269.916C331.244 264.618 342.836 254.069 349.444 240.457C353.329 233.658 356.242 226.213 359.803 219.09C365.484 208.516 373.446 199.338 383.112 192.221C393.705 183.794 403.56 174.48 412.572 164.38C421.39 154.152 429.502 143.336 436.852 132.006C441.708 124.56 445.916 121.647 450.772 121.647C455.489 122.104 460.034 123.655 464.045 126.179C474.885 132.156 483.512 141.464 488.649 152.725C494.891 164.483 500.195 176.714 504.512 189.307C508.236 199.74 510.524 210.631 511.31 221.68C511.31 232.04 511.31 242.075 511.31 254.054C511.513 259.64 512.383 265.183 513.9 270.564C515.334 275.123 518.172 279.113 522.01 281.962C525.847 284.811 530.487 286.374 535.266 286.427C539.901 286.746 544.552 286.746 549.187 286.427C559.424 286.533 569.497 283.847 578.323 278.657C588.307 272.458 596.727 264.038 602.926 254.054C611.591 239.124 616.687 222.394 617.818 205.17C618.197 194.206 619.937 183.331 622.998 172.797C625.166 164.432 630.356 157.166 637.566 152.401C639.135 151.495 640.794 150.762 642.515 150.212C644.361 149.623 646.311 149.488 648.249 149.488C650.588 149.47 652.869 150.221 654.74 151.624C656.612 153.028 657.971 155.007 658.608 157.257C661.211 163.783 662.847 170.654 663.464 177.653C665.472 191.404 669.395 204.808 675.119 217.472C679.879 226.779 685.749 235.475 692.6 243.37C701.018 252.111 709.758 260.204 718.499 268.298C727.159 276.745 735.167 285.836 742.455 295.491C751.843 307.146 761.232 318.8 771.591 327.865L789.546 344.217C789.662 344.322 789.636 344.279 789.739 344.397C791.122 345.977 792.958 344.939 792.958 342.839V299.624C792.958 290.993 791.025 281.956 784.27 276.582C783.318 275.825 782.328 275.113 781.303 274.449C772.681 268.077 763.466 262.548 753.786 257.938C741.38 252.411 729.373 246.029 717.852 238.838C702.086 228.858 690.559 213.411 685.478 195.458C683.791 189.672 682.919 183.679 682.888 177.653C682.254 170.761 682.254 163.825 682.888 156.934C683.726 151.465 685.952 146.303 689.352 141.939C692.753 137.575 697.215 134.155 702.312 132.006C711.079 128.542 720.197 126.045 729.506 124.56C741.722 121.165 753.549 116.499 764.793 110.64C772.069 106.631 778.258 100.91 782.827 93.9725C787.396 87.0347 790.206 79.0884 791.015 70.8208C792.763 58.8084 790.607 46.5521 784.864 35.8577C780.721 29.0768 774.465 23.8447 767.059 20.966C759.844 17.9214 752.367 15.5376 744.721 13.8439C739.552 12.6817 734.468 11.1674 729.506 9.31162C724.501 6.9489 720.245 3.25247 717.204 -1.37156C715.456 -3.95799 712.259 -4.93262 709.138 -4.93262L694.635 -4.93262C690.507 -4.93262 686.038 -2.90888 686.126 1.2183C685.592 6.31597 684.394 11.3221 682.565 16.11C682.021 18.1804 680.918 20.0611 679.376 21.5459C677.834 23.0306 675.913 24.0621 673.824 24.5271C668.489 25.7313 663.082 26.5964 657.637 27.1169L632.71 29.383H624.293C611.217 29.7931 598.44 25.4191 588.358 17.0812C582.848 12.2405 578.292 6.41553 574.922 -0.0923395C574.594 -0.725281 574.356 -1.40652 574.048 -2.04936C572.953 -4.33514 570.175 -4.93262 567.64 -4.93262L544.331 -4.93262C541.193 -4.93262 544.831 0.806392 546.111 3.67056C548.58 9.19135 551.791 14.3576 555.661 19.0236C567.179 33.1845 582.601 43.653 600.013 49.1307C604.569 50.2814 609.236 50.9327 613.933 51.0731H627.854C632.056 50.7508 636.277 50.7508 640.479 51.0731C643.557 51.2338 646.572 52.0032 649.351 53.3368C652.129 54.6705 654.616 56.5419 656.666 58.8427C658.231 60.8899 659.435 63.189 660.227 65.6411C662.899 74.7415 662.752 84.4379 659.805 93.453C656.858 102.468 651.249 110.379 643.717 116.143C637.242 120.352 630.767 124.884 624.617 129.74C611.461 140.857 602.826 156.401 600.337 173.444C598.887 181.453 598.237 189.586 598.394 197.724C598.523 208.682 596.995 219.596 593.862 230.097C590.515 241.221 583.988 251.124 575.085 258.586C569.699 262.774 563.128 265.153 556.309 265.384C552.238 265.384 548.049 264.908 544.686 262.613C543.27 261.647 541.959 260.527 540.778 259.268C538.187 256.508 536.296 253.165 535.266 249.521C532.799 243.112 531.484 236.317 531.382 229.45C530.197 209.132 527.71 188.911 523.936 168.912C522.218 159.281 521.136 149.548 520.698 139.776C519.122 124.666 512.902 110.415 502.893 98.9856C498.037 93.1584 492.534 88.3024 487.678 82.7989C480.761 75.598 475.947 66.6417 473.757 56.9003C471.491 48.4833 469.872 39.7425 467.606 31.3254C465.486 23.4493 460.531 10.7542 456.719 0.932445C456.216 -0.365656 456.208 -1.82386 455.768 -3.14481C455.338 -4.43592 453.893 -4.93262 452.533 -4.93262L408.958 -4.93262Z" fill="white" fill-opacity="0.2"/>
<path d="M-12.1626 289.017L7.26133 291.931C28.7016 295.809 48.0175 307.306 61.6484 324.304C65.399 328.798 68.655 333.682 71.3604 338.872C78.5509 353.984 82.6246 370.389 83.3385 387.108L-nan -nanL83.3385 387.108C83.7123 397.495 85.2323 407.81 87.8708 417.863C90.248 427.895 95.6769 436.943 103.41 443.762C108.596 447.829 114 451.611 119.597 455.092L125.747 459.301C131.828 463.294 137.221 468.239 141.722 473.943C142.106 474.43 142.905 476.783 142.905 477.404C142.905 477.759 142.617 478.077 142.261 478.077H114.417H108.59H104.705C103.331 477.886 101.944 477.811 100.56 477.853C98.7872 477.906 97.0029 478.018 95.239 478.207C88.7972 478.899 82.5082 481.315 76.0295 481.315H-4.87865C-10.5106 481.315 -15.0762 476.749 -15.0762 471.117V462.862C-15.0762 461.789 -14.2066 460.919 -13.1338 460.919C-10.6621 461.238 -8.15972 461.238 -5.68798 460.919H6.61386H19.4504C22.9706 460.919 26.4907 460.615 29.9168 459.807C36.6541 458.216 43.259 456.099 49.6703 453.474C53.2575 452.168 56.4503 449.965 58.9439 447.075C61.4376 444.184 63.1489 440.703 63.9145 436.963C65.8764 427.595 66.8529 418.046 66.8281 408.475C67.4757 399.206 67.4757 389.903 66.8281 380.634C66.3954 367.45 63.0804 354.522 57.1162 342.757C50.5595 328.96 38.9787 318.19 24.7429 312.65C17.6467 310.309 10.1988 309.213 2.72907 309.413H-11.8389C-13.6268 309.413 -15.0762 307.963 -15.0762 306.175V289.665M-13.997 288.765C-14.6615 289.319 -15.5804 289.402 -16.4452 289.382C-17.4009 289.361 -17.9898 290.291 -17.9898 291.246V309.046C-17.9898 310.052 -17.3773 311.031 -16.3712 311.031C-15.2744 311.031 -14.1878 310.707 -13.091 310.707H3.0528C10.3106 310.51 17.5455 311.607 24.4192 313.945C38.6466 319.155 50.2676 329.73 56.7924 343.404C62.9517 354.862 66.2816 367.627 66.5044 380.634C67.152 389.903 67.152 399.206 66.5044 408.475C66.4975 417.938 65.5212 427.375 63.5908 436.639C63.0061 440.194 61.4602 443.521 59.1207 446.26C56.7812 448.998 53.737 451.045 50.3178 452.179C41.8936 454.76 33.2064 456.389 24.4192 457.035H6.29013H-2.77439C-5.24678 457.343 -7.74785 457.343 -10.2202 457.035L-nan -nanL-10.2202 457.035C-10.8553 456.99 -11.4905 457.117 -12.0599 457.402C-13.1682 457.956 -13.4576 459.312 -13.4576 460.552V474.212C-13.4576 476.937 -15.5343 480.667 -12.8101 480.667H76.7014C82.9506 480.667 89.0084 478.34 95.2127 477.593C96.9925 477.378 98.7943 477.231 100.586 477.183C101.854 477.149 103.125 477.231 104.381 477.43C106.001 477.778 107.602 478.203 109.179 478.701C112.699 479.813 116.322 480.667 120.014 480.667H143.373C145.26 480.667 146.79 478.988 146.79 477.101C146.79 476.376 146.562 475.818 146.125 475.24C141.53 469.161 135.957 463.884 129.632 459.624C121.863 454.445 114.093 449.912 106.971 444.085C99.5407 437.39 94.343 428.576 92.0793 418.834C89.4046 408.228 87.7782 397.385 87.2233 386.461C86.545 369.736 82.4696 353.324 75.2452 338.225C72.4697 332.9 69.1033 327.904 65.2095 323.333C51.2982 306.18 31.6219 294.673 9.85119 290.96L-8.97351 286.905C-10.3734 286.604 -11.8342 286.963 -12.9344 287.88L-13.997 288.765Z" fill="white" fill-opacity="0.2"/>
<path d="M158.102 -4.93262H166.876C168.645 -4.93262 170.08 -4.10802 170.08 -2.33838C170.08 -2.10122 170.106 -1.25473 170.159 -1.02356C172.526 9.31045 176.428 19.2324 181.734 28.4118C184.648 33.5916 187.561 38.4476 190.151 43.6273L203.748 68.5547C208.605 78.6883 215.053 87.9784 222.848 96.072C227.064 100.407 232.093 103.869 237.648 106.257C243.203 108.646 249.175 109.915 255.222 109.992H258.135C262.717 109.613 267.166 108.262 271.185 106.029C275.204 103.796 278.701 100.733 281.444 97.0432C287.904 87.3608 291.905 76.2484 293.098 64.6699C293.098 56.5766 294.717 48.1595 295.364 40.39V37.4764C295.364 25.1745 297.954 12.8727 299.573 1.2183V-1.04783C299.375 -2.52201 300.683 -3.63769 302.171 -3.63769H311.255C319.747 -3.63769 326.114 4.25057 322.706 12.0278C322.247 13.0743 321.766 14.1116 321.263 15.1388C314.87 29.8895 310.618 45.4785 308.638 61.4326C308.638 63.1564 308.505 64.8784 308.208 66.5765C306.439 76.7004 303.877 86.6709 300.544 96.3957C298.957 102.797 295.972 108.767 291.803 113.877C288.412 117.707 284.215 120.739 279.513 122.754C274.812 124.769 269.722 125.718 264.61 125.532H261.262C258.104 125.532 254.941 125.308 251.87 124.571C243.54 122.571 235.603 119.152 228.413 114.452C219.896 108.886 212.605 101.64 206.985 93.1584C200.811 84.4549 195.188 75.3725 190.151 65.9648L-nan -nanL190.151 65.9648L184.324 56.2529C177.831 45.8349 171.993 35.0229 166.843 23.8796C162.449 14.7883 159.5 5.06744 158.102 -4.93262M167.897 -4.93262C162.674 -4.93262 158.58 -0.374579 159.704 4.72639C161.105 11.0849 163.17 17.288 165.871 23.2321C172.384 37.9913 179.734 52.3668 187.885 66.2886C193.13 76.0958 199.081 85.5088 205.691 94.4533C211.432 103.03 218.88 110.331 227.569 115.901C235.025 120.68 243.258 124.097 251.883 126.005C254.735 126.635 257.66 126.827 260.581 126.827H264.286C269.567 126.982 274.819 125.992 279.681 123.925C284.543 121.857 288.9 118.76 292.451 114.848C296.724 109.638 299.816 103.564 301.515 97.0432C305.228 85.0541 308.148 72.8338 310.256 60.4614C313.101 44.8835 317.999 29.7518 324.824 15.4625C329.939 5.42361 321.311 -4.93262 310.044 -4.93262L305.621 -4.93262C302.779 -4.93262 299.594 -3.86886 299.249 -1.04783C297.082 11.5992 295.57 24.3497 294.717 37.1526C294.717 45.1328 294.717 52.8945 293.28 60.7968C292.65 64.2626 292.076 67.7451 291.549 71.228C290.076 80.9418 286.409 90.2178 280.797 98.3381C278.166 101.913 274.761 104.847 270.837 106.921C266.913 108.995 262.571 110.156 258.135 110.316H255.545C244.125 109.863 233.329 104.988 225.438 96.7195C217.706 88.7663 211.359 79.5747 206.662 69.5259C199.54 55.9291 191.77 42.6561 184.648 29.383C179.727 20.8896 176.018 11.7552 173.623 2.24495C173.182 0.491168 173.167 -1.42285 172.27 -2.99308C172.235 -3.05476 172.198 -3.11569 172.161 -3.17582C171.294 -4.56557 169.535 -4.93262 167.897 -4.93262Z" fill="white" fill-opacity="0.2"/>
<path d="M33.8044 -1.37156C35.6485 -3.62547 38.4069 -4.93262 41.3191 -4.93262H61.2718C68.0497 -4.93262 73.0409 1.45656 70.3862 7.69296C63.282 22.7954 52.0611 35.5872 38.0129 44.5985C30.1763 50.2217 20.7883 53.2756 11.1431 53.3393C8.34661 53.6603 5.52256 53.6603 2.72606 53.3393L-9.88994 51.4469C-10.1118 51.4136 -10.3359 51.3969 -10.5603 51.3969C-13.056 51.3969 -15.0792 49.3737 -15.0792 46.8779V10.4229C-15.0792 8.80025 -13.9741 7.2383 -12.3828 7.5561C-12.0214 7.62827 -11.6545 7.69296 -11.286 7.69296H14.3804C21.7402 7.12723 28.6434 3.90573 33.8044 -1.37156ZM40.0794 -4.93262C37.8876 -4.93262 35.7448 -4.28384 33.9211 -3.06804C33.1983 -2.58618 32.5417 -2.01383 31.9211 -1.40601C27.2114 3.20656 20.9887 5.98593 14.3804 6.39803H8.55325L-6.01472 5.75056H-10.547C-13.5734 5.46442 -15.0792 8.82991 -15.0792 11.8698V32.3524C-15.0792 43.7157 -6.86398 53.4135 4.34472 55.2817C7.14123 55.6026 9.96527 55.6026 12.7618 55.2817C22.6715 55.3051 32.3234 52.1256 40.2791 46.2171C54.3967 37.0041 65.6199 23.9851 72.6523 8.66415C74.9739 1.7427 69.4478 -4.93262 62.1474 -4.93262L40.0794 -4.93262Z" fill="white" fill-opacity="0.2"/>
<path d="M459.823 5.42683C458.218 0.288657 462.056 -4.93262 467.439 -4.93262H481.001C482.59 -4.93262 484.261 -4.45608 485.014 -3.05748C485.404 -2.33469 485.644 -1.54131 485.722 -0.724093L-nan -nanL485.722 -0.724093C488.417 6.27352 492.491 12.6586 497.7 18.0524C498.449 18.984 499.382 19.7519 500.44 20.3088C501.498 20.8656 502.659 21.1995 503.851 21.2897C505.129 21.2897 506.444 21.0619 507.413 20.228C507.987 19.7343 508.485 19.1534 508.888 18.5034C509.633 17.2992 510.019 15.9074 510.002 14.4913L-nan -nanL510.002 14.4913C510.314 10.829 510.314 7.14675 510.002 3.48443C509.674 1.66456 509.674 -0.19915 510.002 -2.01902L-nan -nanL510.002 -2.01902C510.002 -2.01902 510.002 -2.7342 510.002 -3.47581C510.002 -4.28038 510.654 -4.93262 511.459 -4.93262H527.539C535.364 -4.93262 542.011 0.406548 545.786 7.26083C546.723 8.96284 547.746 10.6198 548.85 12.2252C555.65 21.9602 564.35 30.2192 574.425 36.5052C584.063 43.2189 595.159 47.5463 606.798 49.1307H632.049C636.9 48.9333 641.743 49.7037 646.293 51.3969C649.785 52.3523 652.927 54.2968 655.339 56.9964C657.751 59.6959 659.332 63.0353 659.89 66.6123C660.569 72.3114 660.569 78.071 659.89 83.7701C659.602 89.516 658.062 95.1295 655.378 100.218C653.695 103.408 651.588 106.344 649.121 108.949C646.197 112.037 643.079 115.011 640.607 118.472C637.741 122.484 634.176 125.985 630.107 128.769C615.295 139.602 605.212 155.711 601.942 173.768C600.545 182.332 599.787 190.989 599.676 199.666C599.676 202.58 599.676 205.494 599.676 208.731C599.326 220.571 596.34 232.183 590.935 242.723C588.39 248.966 584.338 254.481 579.141 258.774C574.944 262.241 570.107 264.824 564.919 266.385C562.445 267.13 559.85 267.327 557.267 267.327C552.142 266.897 547.276 264.893 543.335 261.59C539.394 258.286 536.571 253.845 535.253 248.874C532.172 240.091 530.214 230.954 529.426 221.68V217.472C529.152 209.341 528.396 201.233 527.16 193.192C524.246 175.386 521.009 154.991 519.066 134.92C517.827 119.945 511.418 105.868 500.937 95.1008L495.758 89.9211L487.017 80.8565C483.139 76.4676 480.07 71.4256 477.952 65.9648C474.82 58.4183 472.329 50.6211 470.506 42.6561C467.671 30.0495 464.104 17.6187 459.823 5.42683ZM480.82 -4.93262C468.284 -4.93262 459.683 7.75078 463.597 19.6604C466.128 27.3623 468.432 35.1388 470.506 42.9798C472.064 51.0096 474.229 58.9097 476.981 66.6123C479.044 72.1969 482.117 77.3545 486.046 81.8277L499.966 96.072C510.306 106.51 516.614 120.273 517.771 134.92C519.714 154.668 522.627 174.092 525.865 193.192C527.483 202.904 527.807 212.939 528.455 222.651C528.881 231.628 530.292 240.53 532.663 249.198C534.254 254.499 537.502 259.151 541.929 262.471C546.357 265.792 551.732 267.607 557.267 267.65C560.065 267.65 562.875 267.419 565.541 266.571C570.774 264.906 575.655 262.26 579.919 258.759C585.269 254.366 589.49 248.757 592.23 242.399C597.441 231.486 600.098 219.529 599.999 207.436C600.057 195.736 600.922 184.054 602.589 172.473C604.417 163.58 607.99 155.139 613.102 147.637C618.215 140.135 624.765 133.722 632.373 128.769L649.854 116.143C654.714 112.244 658.655 107.322 661.397 101.726C664.139 96.1309 665.614 90.0002 665.717 83.7701C666.364 77.9609 666.364 72.0978 665.717 66.2886C665.143 62.4595 663.456 58.8836 660.866 56.0057C658.276 53.1277 654.897 51.0747 651.149 50.1019C646.46 48.5146 641.531 47.748 636.581 47.8358H611.654C600.012 46.4744 588.889 42.2477 579.281 35.534C569.226 29.4744 560.609 21.3 554.029 11.5777C546.436 2.85944 536.615 -4.93262 525.053 -4.93262L511.944 -4.93262C510.326 -4.93262 511.944 -2.01902 511.944 -0.40036C512.267 4.99035 512.267 10.3956 511.944 15.7863C511.944 17.9492 511.944 20.338 509.87 21.6325C508.958 22.2012 507.839 22.2609 506.765 22.2609C505.742 22.1769 504.75 21.8731 503.856 21.3702C502.962 20.8673 502.187 20.1773 501.585 19.3473C496.463 14.0078 492.399 7.74657 489.607 0.894571C489.143 -0.455949 488.376 -1.68279 487.367 -2.69257C487.058 -3.00143 486.729 -3.28749 486.382 -3.54909C484.818 -4.72905 482.779 -4.93262 480.82 -4.93262Z" fill="white" fill-opacity="0.2"/>
<path d="M470.52 325.274C475.77 325.297 480.874 326.998 485.088 330.13C489.607 333.83 493.536 338.197 496.742 343.079C503.429 354.212 509.002 365.975 513.382 378.198C513.729 379.165 513.9 380.185 513.9 381.212C513.9 382.327 514.103 383.432 514.506 384.471C518.588 394.987 523.249 405.27 528.468 415.271C531.936 421.114 533.091 428.043 531.705 434.695C530.15 445.415 529.392 456.236 529.439 467.068C529.391 467.492 529.357 467.917 529.338 468.342C529.281 469.605 529.439 472.541 529.439 473.806C529.439 474.686 528.726 475.809 527.847 475.809H498.079C495.968 475.809 493.843 475.089 492.626 473.363C492.396 473.036 492.179 472.699 491.975 472.353C491.69 471.867 491.563 471.307 491.563 470.743C491.563 470.036 491.351 469.346 490.964 468.754C487.295 463.141 484.239 457.15 481.851 450.882C475.45 431.496 473.243 410.971 475.376 390.668V387.754C476.022 381.62 476.022 375.435 475.376 369.301C474.978 365.178 473.074 361.346 470.028 358.539C466.982 355.732 463.008 354.146 458.866 354.086C457.142 354.086 455.418 354.209 453.726 354.539C444.151 356.411 435.015 360.1 426.816 365.416C420.994 369.028 415.755 373.504 411.277 378.689C403.692 387.63 398.166 398.13 395.09 409.444C388.904 429.874 383.824 450.623 379.875 471.601L-nan -nanL379.875 471.601C379.875 472.315 379.875 472.898 379.875 473.382C379.875 474.365 379.078 475.162 378.094 475.162H354.722C345.74 475.162 338.913 466.741 343.94 459.299C347.371 454.475 351.044 449.828 354.947 445.378C361.6 437.869 367.358 429.613 372.105 420.775C375.622 414.383 378.756 407.789 381.493 401.027C383.165 396.594 385.111 392.269 387.321 388.078C392.688 377.117 400.169 367.325 409.334 359.265C421.428 348.407 434.305 338.452 447.859 329.482C452.56 325.906 457.967 323.368 463.722 322.036C466.194 321.721 468.695 321.721 471.167 322.036M471.167 323.658C471.167 322.762 470.441 322.036 469.545 322.036H464.147C463.649 322.036 463.152 322.087 462.667 322.201C457.065 323.519 451.799 325.998 447.211 329.482C433.698 338.769 420.728 348.821 408.363 359.589C399.085 367.748 391.496 377.647 386.026 388.725C380.846 399.732 376.637 411.063 370.81 421.098C366.1 429.781 360.455 437.922 353.976 445.378C350.033 449.795 346.357 454.443 342.969 459.299C337.192 467.652 345.029 477.104 355.186 477.104H377.609C379.875 477.104 379.875 474.191 380.199 472.248C384.299 450.666 389.479 429.947 395.738 410.092C398.78 398.927 404.19 388.548 411.601 379.661C415.972 374.583 421.105 370.214 426.816 366.711C434.801 361.5 443.724 357.912 453.076 356.141C454.769 355.82 456.494 355.704 458.218 355.704C462.068 355.771 465.757 357.265 468.568 359.897C471.379 362.529 473.113 366.111 473.434 369.949C474.404 376.929 474.404 384.011 473.434 390.991C471.354 411.508 473.559 432.233 479.908 451.853C482.234 457.972 485.221 463.816 488.817 469.281C489.553 470.401 490.159 471.607 490.813 472.776C492.766 476.266 496.972 477.428 500.971 477.428H525.231C530.773 477.428 535.266 472.935 535.266 467.392C535.23 457.89 535.89 448.399 537.242 438.997C537.624 436.344 537.962 433.665 537.676 431C537.097 425.599 535.164 420.408 532.029 415.919C526.247 405.476 521.164 394.661 516.814 383.545C512.127 369.642 505.94 356.29 498.361 343.726C495.255 338.575 491.189 334.069 486.383 330.453C482.44 327.443 477.707 325.668 472.781 325.332C471.89 325.271 471.167 324.551 471.167 323.658Z" fill="white" fill-opacity="0.2"/>
<path d="M458.883 358.618C460.629 358.599 462.361 358.934 463.974 359.601C465.588 360.269 467.049 361.256 468.272 362.503C470.782 365.4 472.609 368.824 473.618 372.523C474.186 374.605 474.486 376.744 474.516 378.889C474.564 382.219 474.099 385.545 474.099 388.876C474.099 390.718 474.099 392.519 474.099 394.229V407.178C473.92 415.638 474.57 424.096 476.041 432.429C477.255 445.013 481.234 457.173 487.696 468.04L489.638 470.63C492.278 474.583 489.058 479.37 484.304 479.37H426.401C401.886 479.37 383.042 457.253 389.928 433.724L392.194 425.307C395.217 407.029 404.076 390.22 417.446 377.395C428.368 367.091 442.343 360.615 457.265 358.942H458.883M459.208 358.129C459.012 358.62 458.537 358.942 458.008 358.942H457.265C442.036 360.77 427.767 367.339 416.474 377.718C403.03 390.794 394.077 407.795 390.899 426.278C385.736 444.172 381.522 462.327 378.274 480.665L-nan -nanL378.274 480.665H480.607C487.655 480.665 492.438 473.581 488.155 467.984C487.853 467.588 487.57 467.176 487.326 466.742C481.323 456.079 477.59 444.286 476.365 432.105C474.903 423.88 474.252 415.531 474.422 407.178C474.422 399.408 474.422 391.639 476.041 383.869C476.771 379.923 476.597 375.863 475.531 371.994C474.466 368.125 472.537 364.548 469.89 361.532C468.526 360.183 466.908 359.116 465.13 358.394C463.621 357.781 462.021 357.426 460.398 357.342C459.874 357.315 459.403 357.642 459.208 358.129Z" fill="white" fill-opacity="0.2"/>
<path d="M10.1719 327.541C12.534 327.205 14.9319 327.205 17.294 327.541C25.3279 329.037 32.7205 332.931 38.499 338.709C44.2775 344.488 48.171 351.881 49.6673 359.914C53.196 373.173 53.196 387.123 49.6673 400.381C48.2646 407.621 44.8468 414.317 39.807 419.701C34.7673 425.084 28.3103 428.935 21.1788 430.812C10.5469 433.099 -0.324929 434.078 -11.1944 433.726C-13.34 433.726 -15.0792 431.986 -15.0792 429.841V411.712C-15.0792 410.281 -13.9197 409.122 -12.4894 409.122H-6.01472C-2.56908 409.444 0.899077 409.444 4.34472 409.122C13.0402 407.687 20.8729 403.021 26.2752 396.058C31.6776 389.095 34.2511 380.348 33.4807 371.569C33.6272 366.072 31.7705 360.71 28.2564 356.482C25.5057 353.171 21.8864 350.732 17.8393 349.416C15.5853 348.682 13.1897 348.584 10.8194 348.584H5.96338C0.302051 349.346 -5.26484 350.69 -10.6486 352.597C-11.0102 352.725 -11.3906 352.792 -11.7742 352.792C-13.5995 352.792 -15.0792 351.313 -15.0792 349.487V338.602C-15.0792 334.103 -11.4314 330.455 -6.93149 330.455C-6.32223 330.455 -5.71535 330.384 -5.11947 330.257C-0.626093 329.3 3.95729 328.823 8.55325 328.836M9.21928 328.614C8.78013 328.76 8.31527 328.812 7.85412 328.772C3.1317 328.36 -1.61897 328.382 -6.33846 328.836C-11.2669 329.201 -15.0792 333.306 -15.0792 338.248V352.423C-15.0792 353.052 -14.7374 353.7 -14.108 353.7C-13.4418 353.7 -12.7861 353.44 -12.1198 353.44H-11.5875C-11.1114 353.44 -10.6375 353.38 -10.1748 353.268C-4.88738 351.99 0.523489 351.288 5.96338 351.174H10.8194C13.1886 351.174 15.5859 351.295 17.8165 352.094C21.5416 353.427 24.8538 355.763 27.3704 358.875C29.7138 361.772 31.2555 365.204 31.8807 368.829C32.3758 371.7 32.4704 374.64 32.4489 377.553C32.4282 380.345 32.0465 383.128 31.3085 385.833C30.1856 389.95 28.2601 393.803 25.6427 397.173C23.0252 400.542 19.7676 403.361 16.0569 405.468C12.3463 407.574 8.25591 408.926 4.02099 409.446H-10.547C-13.7968 409.446 -15.0792 412.835 -15.0792 416.085V435.02C-15.0792 436.451 -13.9197 437.61 -12.4894 437.61C-1.61875 438.003 9.25801 437.024 19.8839 434.697C27.3816 432.694 34.1453 428.577 39.3685 422.837C44.5918 417.097 48.0544 409.976 49.3436 402.323C52.91 388.741 52.91 374.468 49.3436 360.886C47.6478 352.941 43.6887 345.656 37.9442 339.912C32.1997 334.167 24.9153 330.208 16.9703 328.512C14.6049 328.208 12.2115 328.195 9.84371 328.473C9.63123 328.498 9.42225 328.546 9.21928 328.614Z" fill="white" fill-opacity="0.2"/>
<path d="M11.1431 349.231C15.36 349.41 19.4129 350.915 22.7257 353.53C26.0384 356.146 28.4424 359.739 29.5959 363.799C31.0253 368.479 31.447 373.408 30.8332 378.263C30.2194 383.117 28.584 387.787 26.0348 391.963C23.8756 395.712 20.9869 398.99 17.5395 401.603C14.0921 404.217 10.1559 406.112 5.96339 407.179C1.02015 407.819 -3.98507 407.819 -8.92832 407.179C-12.3254 407.179 -15.0792 404.425 -15.0792 401.028V357.144C-15.0792 355.634 -13.8553 354.41 -12.3456 354.41C-12.0126 354.41 -11.6826 354.349 -11.3706 354.233C-4.88146 351.815 1.95456 350.454 8.87698 350.202M10.7153 348.531C9.54307 349.596 7.98055 350.114 6.39837 350.034C0.737685 349.744 -4.93992 350.105 -10.5229 351.11C-10.7544 351.151 -10.989 351.173 -11.2242 351.173C-13.3533 351.173 -15.0792 352.899 -15.0792 355.028V400.057C-15.0792 404.169 -11.7456 407.503 -7.63339 407.503C-2.69014 408.143 2.31508 408.143 7.25832 407.503C11.8818 406.237 16.2054 404.059 19.9744 401.097C23.7434 398.135 26.8818 394.449 29.2046 390.256C31.5275 386.063 32.9879 381.447 33.4998 376.681C34.0118 371.915 33.565 367.095 32.1857 362.504C30.9578 358.16 28.3855 354.316 24.8377 351.524C21.9022 349.214 18.4238 347.723 14.7552 347.18C13.2791 346.961 11.8195 347.527 10.7153 348.531Z" fill="white" fill-opacity="0.2"/>
<path d="M189.525 132.976H190.3C192.146 132.976 193.987 133.246 195.722 133.878C201.315 135.916 206.631 138.658 211.539 142.041L-nan -nanL211.539 142.041C222.869 149.487 234.524 156.933 243.912 164.378C250.295 168.243 256.207 172.828 261.533 178.04C263.643 180.104 265.881 182.046 267.924 184.177C269.97 186.312 271.697 188.743 273.042 191.395C275.057 195.37 276.165 199.743 276.285 204.198C276.22 207.545 275.435 210.839 273.982 213.856C272.53 216.872 270.444 219.541 267.868 221.679C262.13 227.674 255.462 232.703 248.12 236.571L243.912 238.837C235.171 243.693 226.43 248.873 218.013 254.7C215.643 256.366 213.196 257.921 210.683 259.36C208.906 260.377 206.948 261.151 204.903 261.054C203.711 260.997 202.502 260.929 201.343 260.646C197.912 259.809 195.954 256.434 195.676 251.139C195.393 247.151 195.393 243.148 195.676 239.161C197.933 227.785 198.237 216.121 196.587 204.667C196.075 201.11 195.812 197.487 194.925 194.005C193.869 189.861 191.95 185.703 190.82 181.86C189.201 176.357 186.935 168.587 185.64 162.112C183.764 155.26 182.892 148.172 183.05 141.07C183.05 134.919 185.64 131.681 190.172 131.681M189.525 132.005C189.686 131.924 189.627 131.693 189.447 131.706C184.721 132.029 182.064 135.582 181.755 142.365C181.656 149.571 182.527 156.757 184.345 163.731C186.935 176.357 191.467 188.335 194.381 200.96C196.971 213.998 196.971 227.418 194.381 240.456C194.061 244.442 194.061 248.447 194.381 252.434C194.381 258.345 196.834 262.026 200.63 263.107C202.242 263.566 203.947 263.695 205.623 263.727C207.63 263.764 209.547 263.011 211.303 262.039C213.859 260.624 216.317 259.038 218.661 257.29C228.373 250.491 238.732 244.988 249.092 239.161C256.638 234.522 263.32 228.607 268.839 221.679C273.454 217.143 276.124 210.99 276.285 204.521C276.395 200.229 275.651 195.958 274.095 191.956C272.538 187.955 270.202 184.302 267.221 181.213C261.077 174.723 254.112 169.064 246.502 164.378L211.539 141.717C205.77 137.787 199.502 134.646 192.901 132.376C192.809 132.345 192.713 132.329 192.616 132.329H189.601C189.421 132.329 189.364 132.086 189.525 132.005Z" fill="white" fill-opacity="0.2"/>
<path d="M429.724 409.119C430.346 409.152 430.954 409.313 431.511 409.591C432.068 409.87 432.562 410.26 432.962 410.738C435.063 412.942 436.438 415.738 436.901 418.748C437.364 421.758 436.893 424.838 435.551 427.572C435.001 429.006 434.084 430.269 432.89 431.235C432.044 431.92 431.081 432.438 430.051 432.767C429.206 433.038 428.34 433.301 427.457 433.389C425.938 433.542 424.562 432.582 423.661 431.35C423.053 430.519 422.55 429.614 422.166 428.653C421.494 426.974 421.201 425.168 421.307 423.363C421.319 421.024 421.883 418.72 422.951 416.639C423.674 415.233 424.613 413.954 425.731 412.85C426.779 411.814 428.251 411.385 429.724 411.385M429.724 410.686C429.724 411.04 429.389 411.298 429.038 411.251C428.423 411.169 427.798 411.186 427.187 411.301C426.937 411.349 426.704 411.462 426.503 411.618C424.844 412.908 423.45 414.51 422.402 416.334C421.29 418.27 420.59 420.415 420.347 422.635C420.103 424.855 420.322 427.101 420.989 429.232C421.393 430.523 421.956 431.755 422.663 432.9C423.581 434.388 424.899 435.655 426.56 436.201C428.178 436.733 429.964 436.555 431.496 435.81C432.231 435.452 432.925 435.007 433.56 434.482C434.858 433.41 435.874 432.038 436.523 430.485C438.018 427.567 438.572 424.256 438.108 421.01C437.644 417.763 436.185 414.74 433.933 412.356C433.418 411.717 432.78 411.187 432.058 410.798C431.51 410.503 430.922 410.293 430.313 410.175C430 410.114 429.724 410.367 429.724 410.686Z" fill="white" fill-opacity="0.2"/>
<path d="M94.3229 172.795C96.2306 172.82 98.0989 173.34 99.7448 174.305C101.391 175.27 102.757 176.646 103.711 178.298C105.009 180.374 105.889 182.683 106.301 185.097C107.276 192.077 107.276 199.159 106.301 206.139C106.301 208.082 106.301 210.024 106.301 211.967C105.519 221.014 105.519 230.112 106.301 239.16V245.311C106.301 253.404 106.301 262.145 106.301 270.562C106.757 279.024 105.547 287.494 102.74 295.49C100.798 300.346 98.2077 302.935 93.9992 302.935C91.4263 302.935 88.8484 302.569 86.4888 301.544C83.3474 300.178 80.3704 298.454 77.6179 296.405C77.1105 296.027 76.4979 295.813 75.8653 295.813C75.2387 295.813 74.6297 295.606 74.1331 295.224L37.0222 266.677C33.7079 264.231 30.6588 261.453 27.9211 258.388C25.4447 255.616 22.8073 252.929 20.7565 249.829C18.6515 246.646 17.3914 242.943 17.1469 239.071C16.7837 233.321 18.6892 227.658 22.4543 223.297C24.534 220.243 27.1697 217.607 30.2239 215.528L45.4393 204.197C54.5038 197.722 63.5683 190.924 71.9854 183.802C77.2208 178.785 83.4007 174.859 90.1651 172.252C90.3466 172.182 90.5337 172.126 90.7253 172.093C91.9166 171.887 93.1367 171.905 94.3229 172.147L-nan -nanL94.3229 172.147M94.3229 171.349C94.3229 171.79 93.9654 172.147 93.5243 172.147H90.7488C90.3292 172.147 89.9123 172.22 89.52 172.369C82.6194 174.99 76.3224 178.99 71.0142 184.126C57.7411 195.456 43.1732 205.168 29.5764 216.499C26.3882 218.768 23.5521 221.495 21.1593 224.592C17.3656 229.249 15.4597 235.162 15.8194 241.157C16.1792 247.153 18.7783 252.795 23.1017 256.965C26.9945 261.324 31.4594 265.135 36.3748 268.296C49.3241 278.008 62.5971 287.396 75.8702 296.785C78.9852 299.11 82.3442 301.082 85.8848 302.666C88.427 303.804 91.214 304.23 93.9992 304.23C96.3689 304.14 98.6413 303.264 100.458 301.74C102.275 300.216 103.534 298.131 104.035 295.813C106.843 287.706 108.052 279.13 107.596 270.562C107.596 259.879 107.596 249.52 107.596 238.189C106.949 229.136 106.949 220.048 107.596 210.995C108.889 202.085 108.889 193.036 107.596 184.126C107.074 181.538 106.203 179.033 105.006 176.68C103.877 174.847 102.309 173.325 100.443 172.251C98.8154 171.314 97.0059 170.744 95.1414 170.576C94.6939 170.536 94.3229 170.899 94.3229 171.349Z" fill="white" fill-opacity="0.2"/>
<path d="M445.562 199.988C448.141 199.988 450.76 200.216 453.089 201.324C454.45 201.972 455.741 202.766 456.938 203.694C459.162 205.417 461.018 207.57 462.396 210.024C463.896 212.591 464.843 215.443 465.178 218.397C465.512 221.352 465.226 224.344 464.338 227.181C462.704 232.004 460.055 236.419 456.569 240.131C453.254 243.93 449.685 247.499 445.886 250.814L440.059 256.641C427.958 269.216 416.504 282.398 405.743 296.136C398.153 305.507 389.205 313.69 379.197 320.416C373.427 324.045 366.884 326.263 360.097 326.891C358.601 327.045 357.092 326.796 355.726 326.17C354.36 325.544 353.186 324.563 352.327 323.33C351.47 321.914 351.017 320.291 351.017 318.636C351.017 318.308 351.035 317.981 351.07 317.657C351.354 315.04 352.797 312.702 354.009 310.365C355.299 307.879 356.794 305.502 358.478 303.259C369.977 288.431 378.947 271.804 385.024 254.051C388.74 242.859 394.812 232.593 402.829 223.944C410.978 216.094 420.12 209.346 430.023 203.873C434.608 201.32 439.685 199.775 444.915 199.34L-nan -nanL444.915 199.34M444.915 199.34C439.444 199.814 434.142 201.47 429.375 204.196C419.277 209.515 410.007 216.276 401.858 224.268C393.482 233.576 387.289 244.636 383.729 256.641C377.272 273.226 368.32 288.728 357.183 302.611C355.782 304.402 354.524 306.297 353.421 308.279C351.622 311.508 349.468 314.843 349.432 318.539C349.431 318.571 349.431 318.604 349.431 318.636C349.431 320.535 349.988 322.392 351.032 323.977C351.968 325.408 353.276 326.557 354.817 327.298C356.357 328.04 358.071 328.347 359.773 328.186L-nan -nanL359.773 328.186C366.728 327.646 373.423 325.303 379.197 321.388C389.377 314.751 398.353 306.431 405.743 296.784C416.75 283.511 427.757 270.562 440.059 258.26C445.562 252.756 451.389 247.576 456.569 241.749C460.235 237.868 462.998 233.225 464.662 228.153C466.365 222.228 465.652 215.871 462.679 210.471C460.441 206.406 457.059 203.133 452.999 201.025C450.331 199.64 447.273 199.34 444.267 199.34H444.915Z" fill="white" fill-opacity="0.2"/>
<path d="M398.004 480.666C395.133 479.427 392.585 477.544 390.558 475.163L387.32 472.249C383.058 468.624 379.254 464.493 375.99 459.948C373.144 455.65 371.365 450.734 370.802 445.61C370.239 440.486 370.908 435.301 372.752 430.488C375.238 422.31 378.266 414.307 381.817 406.532L384.731 399.733C390.474 386.772 394.711 373.194 397.356 359.267C398.321 353.259 397.983 347.114 396.363 341.249C394.743 335.383 391.88 329.935 387.968 325.275C384.559 321.185 380.306 317.881 375.501 315.59C370.695 313.299 365.45 312.075 360.127 312.002H352.427C349.579 312.002 346.634 311.981 344.095 310.691C342.825 310.047 341.657 309.202 340.637 308.183C338.601 306.147 337.264 303.516 336.818 300.671C336.326 297.344 336.326 293.962 336.818 290.635C337.086 281.648 336.544 272.655 335.2 263.766C334.564 254.429 331.226 245.479 325.593 238.007C319.959 230.534 312.274 224.862 303.474 221.68L292.143 218.443L273.367 210.35C258.433 203.249 245.849 192.014 237.109 177.976L233.224 171.825C230.086 166.059 226.515 160.54 222.541 155.315C220.625 151.992 217.898 149.209 214.614 147.227C211.33 145.245 207.597 144.13 203.764 143.984C198.345 144.188 193.084 145.867 188.549 148.84C178.178 154.757 169.381 163.08 162.902 173.109C156.423 183.138 152.45 194.579 151.319 206.465C150.083 217.473 150.428 228.591 152.335 239.482C153.055 243.593 153.585 247.744 153.585 251.917C153.585 251.982 153.585 252.046 153.585 252.111C153.585 254.377 156.175 263.766 157.147 269.916C158.722 279.347 158.722 288.974 157.147 298.405C154.597 312.923 149.675 326.923 142.579 339.843C139.427 345.964 134.833 351.226 129.193 355.174C123.552 359.123 117.036 361.638 110.205 362.504H96.6085C79.4743 362.343 62.5776 358.478 47.0774 351.173L39.6316 347.612C32.4381 344.091 24.967 341.167 17.294 338.871C10.7423 337.004 4.01688 335.811 -2.7774 335.31C-8.14117 335.31 -12.4894 330.962 -12.4894 325.598V305.33C-12.4894 304.008 -11.4182 302.937 -10.0969 302.937C-9.96555 302.937 -9.83428 302.948 -9.7047 302.97C10.6533 306.386 29.8374 314.831 46.1062 327.541C53.2777 333.317 60.9728 338.411 69.0913 342.756C77.7003 347.66 87.3569 350.435 97.256 350.85H99.5221C106.032 350.922 112.448 349.286 118.128 346.105C123.809 342.924 128.556 338.309 131.895 332.721C139.354 319.801 143.471 305.224 143.874 290.312C143.761 280.372 142.457 270.481 139.989 260.852C136.909 248.036 135.71 234.841 136.428 221.68C136.162 202.827 139.684 184.112 146.787 166.646C150.735 158.372 155.741 150.645 161.679 143.661L168.477 135.244C175.599 126.503 182.721 117.762 190.491 109.345C194.481 104.896 198.93 100.881 203.764 97.3669C213.478 90.0509 221.81 81.0615 228.368 70.8208C236.061 59.3102 244.725 48.4795 254.266 38.4476C261.283 32.5285 268.633 27.0161 276.28 21.9372L279.518 19.3473C286.448 14.1513 291.703 7.04117 294.637 -1.1038C294.701 -1.28073 294.733 -1.46764 294.733 -1.65571C294.733 -2.57153 295.475 -3.31395 296.391 -3.31395H331.791C332.87 -3.31395 333.934 -2.62837 333.795 -1.55822C333.722 -1.0037 333.657 -0.432157 333.811 0.105358C336.17 8.32191 340.54 15.8264 346.53 21.9372C359.029 35.6125 369.003 51.3961 375.99 68.5547C380.045 80.0863 385.713 90.9855 392.824 100.928C399.452 108.859 406.944 116.026 415.161 122.294L420.665 126.503C429.082 132.978 437.499 139.776 446.564 145.603C452.41 149.615 459.235 151.964 466.311 152.401C470.194 152.444 474.037 151.624 477.564 150.001C481.092 148.377 484.214 145.99 486.706 143.013C492.157 136.874 496.733 130.011 500.303 122.618C504.835 113.23 508.72 103.842 512.281 94.4533L516.166 84.0939C520.678 75.6627 525.761 67.5504 531.382 59.8139C535.238 53.5231 536.623 46.0246 535.266 38.7713C533.677 28.0507 532.811 17.235 532.676 6.39803C532.676 4.77936 532.676 3.48443 532.676 2.1895C532.925 0.133834 534.5 -1.69529 536.571 -1.69529H563.906C566.329 -1.69529 568.965 -1.01418 569.906 1.2183C571.673 6.04324 574.068 10.6147 577.028 14.8151C580.711 20.1893 585.509 24.7063 591.096 28.0583C596.682 31.4103 602.926 33.5184 609.401 34.239H635.3C643.011 34.3519 650.7 35.1099 658.285 36.5052C664.952 38.0554 670.957 41.6793 675.436 46.8561C679.914 52.0329 682.637 58.4962 683.212 65.3174C684.366 72.9356 684.366 80.6842 683.212 88.3024C681.94 96.4314 678.119 103.947 672.301 109.765C666.483 115.583 658.968 119.403 650.839 120.676C647.185 121.15 643.486 121.15 639.832 120.676C630.916 120.56 622.154 118.342 614.257 114.201C608.754 111.611 603.25 108.05 597.747 104.813L591.272 100.604C587.773 98.4484 584.089 96.6067 580.265 95.1008C576.373 93.4419 572.194 92.5621 567.963 92.5109C561.193 92.7254 554.601 94.7365 548.863 98.3381C540.7 103.647 533.839 110.729 528.792 119.057C524.309 126.486 520.178 134.12 516.409 141.934C514.927 145.007 513.807 148.24 512.98 151.55L512.695 152.691C511.989 155.515 511.116 158.309 509.738 160.874C507.938 164.224 505.75 167.357 503.217 170.207C500.758 173.117 497.679 175.442 494.207 177.01C490.734 178.578 486.955 179.351 483.145 179.271H480.232C466.356 178.887 453.153 173.212 443.326 163.408L425.845 147.869L393.471 119.704C382.491 109.583 373.49 97.5073 366.925 84.0939L-nan -nanL366.925 84.0939C362.69 74.0238 356.656 64.8091 349.12 56.9003C340.731 47.7472 329.136 42.1814 316.747 41.3612C312.804 41.4734 308.94 42.4962 305.459 44.3495C301.977 46.2028 298.971 48.8364 296.675 52.0443C293.203 56.0269 290.164 60.3678 287.611 64.9936C278.017 80.4116 267.191 95.0273 255.238 108.698C249.434 115.432 245.524 123.588 243.907 132.33C242.333 142.583 243.448 153.069 247.144 162.761C250.441 171.295 255.756 178.903 262.634 184.935C268.481 190.064 275.311 193.923 282.689 196.289C285.291 197.124 287.903 197.936 290.462 198.896C295.015 200.603 299.568 202.047 304.121 203.227L316.747 207.112C330.894 212.108 342.517 222.453 349.12 235.924C351.386 239.809 353.329 244.018 355.271 247.903C357.213 251.787 358.185 254.054 359.479 256.967C365.263 267.748 373.328 277.139 383.112 284.484C393.649 292.857 403.501 302.059 412.572 312.002C421.311 322.214 429.316 333.032 436.528 344.375C441.708 352.145 446.24 355.382 451.743 355.382C456.557 354.906 461.203 353.357 465.34 350.85C476.525 344.817 485.403 335.257 490.591 323.656C496.502 311.606 501.585 299.167 505.807 286.427C509.531 275.994 511.819 265.103 512.605 254.054C512.605 248.226 512.605 242.723 512.605 237.543C512.605 232.363 512.605 227.831 512.605 222.975C512.767 217.513 513.527 212.085 514.871 206.789C515.865 202.032 518.404 197.739 522.093 194.576C525.782 191.414 530.414 189.562 535.266 189.307C539.896 188.857 544.558 188.857 549.187 189.307C559.227 189.151 569.105 191.845 577.675 197.077C587.614 203.535 595.836 212.312 601.632 222.651C610.154 237.431 615.347 253.893 616.847 270.888V275.096C617.065 284.541 618.59 293.911 621.379 302.937C623.787 311.538 629.182 318.998 636.595 323.98C638.155 324.971 639.824 325.774 641.565 326.375C643.6 327.076 645.772 327.217 647.925 327.217C650.505 327.213 653.018 326.399 655.11 324.888C657.201 323.378 658.765 321.248 659.58 318.8C661.879 312.562 663.57 306.117 664.629 299.555C664.718 299.005 664.759 298.449 664.759 297.892C664.759 297.371 664.796 296.851 664.872 296.336C666.877 282.847 670.761 269.704 676.414 257.291C680.985 248.148 686.755 239.656 693.572 232.04C700.046 224.918 707.168 218.443 713.643 212.292L719.47 207.112C728.138 198.673 736.147 189.581 743.426 179.919C752.474 168.547 762.204 157.736 772.562 147.545C777.661 142.765 783.387 137.358 790.359 131.323C790.573 131.138 790.847 131.035 791.13 131.035C791.782 131.035 792.31 131.563 792.31 132.215V176.976C792.31 185.054 790.63 193.575 784.276 198.563C783.327 199.307 782.335 200 781.303 200.638C772.57 206.747 763.369 212.16 753.786 216.824L746.664 220.385C736.721 225.034 727.096 230.333 717.852 236.248C701.958 246.385 690.416 262.083 685.478 280.276C683.869 286.189 682.999 292.278 682.888 298.405V301.642C682.256 307.561 682.256 313.529 682.888 319.448C683.628 325.16 685.877 330.571 689.406 335.124C692.934 339.676 697.613 343.205 702.96 345.346C708.045 347.605 713.291 349.477 718.655 350.946C720.901 351.561 723.243 351.718 725.563 351.516C728.17 351.29 730.8 351.526 733.304 352.287C744.027 355.551 754.454 359.727 764.469 364.77C771.611 368.709 777.677 374.34 782.136 381.17C786.595 387.999 789.31 395.819 790.044 403.942C791.79 415.641 789.628 427.589 783.893 437.934C780.037 444.51 774.12 449.63 767.059 452.502C761.932 454.61 756.673 456.38 751.316 457.801C749.949 458.163 748.539 458.329 747.125 458.329C745.53 458.329 743.94 458.54 742.414 459.001C738.473 460.193 734.597 461.589 730.801 463.185C725.474 465.622 720.974 469.559 717.852 474.516C716.734 476.464 714.368 477.105 712.122 477.105H694.543C692.397 477.105 690.658 475.366 690.658 473.221C689.926 468.053 688.734 462.961 687.097 458.005C686.345 455.868 685.104 453.936 683.475 452.363C681.845 450.789 679.871 449.618 677.709 448.941C672.155 447.738 666.533 446.873 660.875 446.351L635.947 444.085H627.53C613.612 443.378 599.949 448.01 589.33 457.034C583.482 462.3 578.749 468.685 575.409 475.81C574.468 478.043 571.832 478.724 569.409 478.724H548.525C547.46 478.724 546.597 478.393 546.597 477.328C546.597 477.104 546.636 476.35 546.713 476.14C549.286 469.126 552.963 462.567 557.604 456.71C569.334 442.325 585.31 432.014 603.25 427.251C607.678 426.013 612.249 425.36 616.847 425.308H630.768C635.079 425.596 639.405 425.596 643.717 425.308C646.918 425.137 650.054 424.334 652.943 422.945C655.833 421.556 658.418 419.608 660.551 417.215C662.348 415.029 663.671 412.494 664.436 409.769C666.998 400.435 666.769 390.554 663.777 381.349C660.785 372.143 655.162 364.016 647.602 357.972L644.041 355.706C638.861 352.145 633.357 348.26 628.501 344.375C616.518 334.292 608.335 320.473 605.222 305.203C604.698 302.63 604.151 300.06 603.489 297.52C601.768 290.912 600.604 284.169 600.013 277.362C600.005 266.414 598.48 255.519 595.481 244.989C592.127 233.524 585.35 223.358 576.057 215.853C570.535 211.418 563.712 208.917 556.633 208.731H556.358C552.238 208.731 548.014 208.967 544.346 210.845C542.388 211.848 540.563 213.109 538.923 214.603C535.747 217.496 533.372 221.16 532.029 225.241C529.645 231.786 528.334 238.673 528.144 245.636C527.019 264.374 524.833 283.031 521.596 301.518C521.016 304.834 520.757 308.198 520.458 311.551C519.848 318.378 518.239 325.329 517.461 332.073V335.634C517.021 350.327 511.919 364.499 502.893 376.101C499.93 379.495 496.797 382.736 493.505 385.813L487.678 391.964C481.98 397.882 477.68 404.968 475.058 412.701C473.77 416.5 473.923 420.62 472.928 424.505C472.562 425.935 471.931 427.373 470.844 428.869C468.254 432.43 468.577 438.905 467.282 444.085C465.988 449.264 461.779 461.242 458.542 469.336L456.408 475.025C456.089 475.875 455.334 477.517 454.806 478.256C454.601 478.544 453.8 479.371 453.446 479.371H398.004M398.004 479.861C398.004 479.591 398.223 479.371 398.494 479.371H452.642C453.972 479.371 455.398 479.201 456.281 478.207C456.729 477.703 457.059 477.106 457.247 476.458C461.132 465.451 465.664 454.444 468.901 444.085C472.138 433.725 472.786 426.927 475.052 418.51C477.242 408.768 482.056 399.812 488.973 392.611C493.829 387.108 499.332 382.252 504.188 376.424C513.38 364.715 518.798 350.491 519.727 335.634C520.165 325.862 521.247 316.129 522.965 306.498C526.739 286.499 529.226 266.278 530.41 245.96C530.859 239.144 532.503 232.46 535.266 226.213C536.506 222.308 538.74 218.793 541.747 216.012C543.242 214.631 544.901 213.454 546.682 212.506C550.289 210.585 554.488 210.35 558.575 210.35C565.394 210.581 571.965 212.96 577.352 217.148C586.254 224.61 592.781 234.513 596.128 245.636C599.261 256.138 600.789 267.052 600.66 278.01C600.503 286.147 601.154 294.281 602.603 302.29C605.092 319.332 613.728 334.876 626.883 345.994C633.034 350.85 639.508 355.382 645.983 359.59C653.515 365.355 659.124 373.266 662.071 382.281C665.018 391.296 665.166 400.992 662.493 410.093C661.701 412.545 660.497 414.844 658.932 416.891C656.882 419.192 654.395 421.063 651.617 422.397C648.839 423.731 645.823 424.5 642.746 424.661C638.543 424.983 634.322 424.983 630.12 424.661H616.2C611.503 424.801 606.835 425.452 602.279 426.603C584.162 431.734 568.022 442.23 555.985 456.71C551.239 462.433 547.483 468.907 544.874 475.866C544.727 476.257 544.655 476.748 544.655 477.166C544.655 479.141 546.256 480.666 548.232 480.666H567.964C570.498 480.666 573.277 480.069 574.372 477.783C574.68 477.14 574.918 476.459 575.245 475.826C578.615 469.318 583.171 463.493 588.682 458.653C599.052 449.893 612.353 445.383 625.911 446.027H634.328L659.256 448.293C664.701 448.814 670.107 449.679 675.443 450.883C677.532 451.348 679.453 452.379 680.995 453.864C682.537 455.349 683.64 457.23 684.183 459.3C686.013 464.088 687.21 469.094 687.744 474.192C687.656 478.319 692.125 480.343 696.254 480.343H710.756C713.878 480.343 717.075 479.368 718.823 476.782C721.864 472.158 726.12 468.461 731.125 466.098C735.665 464.297 740.314 462.783 745.045 461.566C752.691 459.872 760.167 457.489 767.383 454.444C774.789 451.565 781.045 446.333 785.188 439.552C790.931 428.858 793.087 416.602 791.339 404.589C790.53 396.322 787.72 388.375 783.151 381.438C778.582 374.5 772.392 368.779 765.117 364.77C753.756 359.001 741.82 354.444 729.506 351.173C721.055 349.305 712.812 346.593 704.902 343.08C699.804 340.931 695.342 337.511 691.942 333.147C688.542 328.784 686.316 323.621 685.478 318.153C684.844 311.261 684.844 304.325 685.478 297.434C685.509 291.407 686.38 285.414 688.068 279.628C693.149 261.675 704.676 246.228 720.441 236.248C731.963 229.057 743.97 222.675 756.376 217.148C766.056 212.539 775.271 207.01 783.893 200.638C784.423 200.256 784.942 199.861 785.45 199.454C792.344 193.92 794.252 184.642 794.252 175.801V129.93C794.252 128.037 792.874 126.327 791.638 127.76C791.318 128.131 790.828 128.94 790.465 129.27L772.886 145.279C762.527 155.963 753.138 167.617 743.75 177.653C736.462 187.308 728.454 196.399 719.794 204.846C711.053 212.939 702.312 221.033 693.895 229.774C687.044 237.669 681.174 246.365 676.414 255.672C670.573 268.745 666.647 282.593 664.759 296.786C664.142 303.785 662.506 310.656 659.903 317.181C659.265 319.432 657.906 321.411 656.035 322.815C654.164 324.218 651.883 324.969 649.544 324.951C646.745 324.951 643.911 324.788 641.292 323.801C640.006 323.317 638.76 322.727 637.566 322.037C630.356 317.273 625.166 310.007 622.998 301.642C619.937 291.107 618.197 280.233 617.818 269.269C616.493 252.489 611.403 236.223 602.926 221.68C596.928 211.107 588.493 202.117 578.323 195.458C569.497 190.268 559.424 187.582 549.187 187.688C544.515 187.906 539.864 188.447 535.266 189.307C530.504 189.731 525.999 191.651 522.394 194.79C518.788 197.93 516.269 202.13 515.195 206.789C513.799 211.645 512.93 216.638 512.605 221.68C512.605 232.04 512.605 242.075 512.605 254.054C511.819 265.103 509.531 275.994 505.807 286.427C501.459 298.798 496.155 310.812 489.944 322.361C484.806 333.623 476.18 342.931 465.34 348.907C461.329 351.431 456.784 352.983 452.067 353.439C447.211 353.439 443.003 350.526 438.147 343.08C430.797 331.75 422.685 320.934 413.867 310.707C404.855 300.606 395 291.292 384.407 282.866C374.741 275.749 366.779 266.57 361.098 255.996C357.537 248.874 354.623 241.428 350.739 234.63C344.131 221.017 332.539 210.468 318.365 205.17C308.33 201.933 298.294 199.343 288.258 195.458C279.817 193.017 272.058 188.646 265.597 182.69C259.135 176.735 254.148 169.358 251.029 161.142C247.387 151.663 246.272 141.399 247.792 131.359C249.368 122.763 253.163 114.729 258.799 108.05C270.688 94.3287 281.511 79.7181 291.172 64.3462C293.597 59.8196 296.529 55.5838 299.913 51.7206C302.108 48.6641 304.967 46.1443 308.275 44.3502C311.583 42.5561 315.254 41.5342 319.013 41.3612C330.711 42.4181 341.579 47.8522 349.444 56.5766C357.051 64.6169 363.187 73.9308 367.573 84.0939C374.135 97.6033 383.135 109.785 394.119 120.028C410.306 134.92 426.492 149.164 442.679 163.732C452.752 173.799 466.318 179.596 480.555 179.919H483.793C487.452 179.756 491.038 178.838 494.325 177.223C497.612 175.607 500.529 173.328 502.893 170.531C506.854 166.487 510.232 161.911 512.929 156.934C518.303 144.677 524.467 132.782 531.382 121.323C536.203 113.21 542.855 106.337 550.805 101.252C556.335 97.7168 562.701 95.7064 569.258 95.4245C573.276 95.5098 577.237 96.39 580.913 98.0144C584.736 99.5218 588.419 101.363 591.92 103.518C599.689 108.05 607.135 113.23 614.905 117.115C623.018 121.297 632 123.515 641.127 123.589C644.89 124.047 648.695 124.047 652.458 123.589C660.832 122.001 668.484 117.787 674.304 111.559C680.125 105.332 683.812 97.4129 684.831 88.9499C685.802 81.2107 685.802 73.3803 684.831 65.6411C684.401 58.516 681.629 51.7326 676.945 46.3462C672.261 40.9598 665.929 37.2724 658.932 35.8577C648.241 33.9837 637.412 33.0091 626.559 32.9441C621.379 32.9441 616.2 32.9441 611.343 32.9441C604.905 32.3628 598.671 30.3811 593.079 27.1377C587.487 23.8943 582.672 19.4676 578.97 14.1676C576.762 10.9101 574.843 7.46893 573.232 3.88339C572.253 1.70427 571.842 -0.778321 570.391 -2.67595C568.956 -4.55247 566.411 -4.93262 564.049 -4.93262L538.667 -4.93262C536.49 -4.93262 533.648 -4.1964 533.648 -2.01902C533.648 -0.724092 533.648 3.1607 533.648 6.07429C533.736 16.9134 534.601 27.7323 536.238 38.4476C537.515 45.2441 536.248 52.2731 532.676 58.1953C528.546 65.9603 524.871 73.9592 521.67 82.1515C516.814 94.7771 512.281 108.05 506.13 120.352C502.472 127.595 497.903 134.34 492.534 140.423C490.117 143.217 487.137 145.469 483.79 147.031C480.443 148.593 476.803 149.43 473.11 149.488L-nan -nanL473.11 149.488C466.272 149.112 459.667 146.873 454.009 143.013C443.326 135.891 432.967 127.798 421.636 119.704C413.345 113.522 405.844 106.346 399.299 98.3381C392.113 88.4909 386.54 77.5633 382.788 65.9648C374.795 49.1245 363.952 33.7916 350.739 20.6423C344.77 14.4648 340.431 6.89977 338.113 -1.37156C337.424 -4.05931 334.33 -4.93262 331.555 -4.93262L299.47 -4.93262C297.254 -4.93262 294.999 -4.18561 293.809 -2.31614C293.551 -1.91059 293.357 -1.46754 293.185 -1.01864C290.199 6.76289 285 13.5068 278.223 18.3761C270.101 24.4162 262.319 30.9007 254.914 37.8001C245.116 47.69 236.331 58.5351 228.691 70.1734C222.164 80.1512 213.948 88.9151 204.412 96.072C199.688 99.8376 195.251 103.95 191.138 108.374C180.455 119.381 171.391 131.359 162.003 143.013C155.977 149.999 150.864 157.722 146.787 165.998C139.093 183.553 135.124 202.513 135.133 221.68C134.681 234.464 136.209 247.241 139.665 259.557C142.249 269.053 143.556 278.851 143.55 288.693C143.373 303.436 139.236 317.86 131.572 330.454C128.278 336.039 123.523 340.619 117.818 343.7C112.113 346.781 105.675 348.245 99.1984 347.936H97.256C87.5088 347.477 77.9913 344.821 69.415 340.166C61.6484 335.582 54.1869 330.5 47.0774 324.951C30.8533 312.192 11.8188 303.499 -8.43659 299.591C-9.19369 299.445 -9.96371 299.376 -10.7348 299.376H-12.3863C-12.669 299.376 -12.9499 299.322 -13.2268 299.264C-14.3264 299.038 -15.0792 300.133 -15.0792 301.255L-15.0792 333.246C-15.0792 333.901 -14.665 334.517 -14.0107 334.555C-13.4979 334.585 -12.9805 334.513 -12.4894 334.339L-nan -nanL-12.4894 334.339H-4.39606C2.38415 334.76 9.10679 335.844 15.6754 337.577C26.1444 341.084 36.3198 345.414 46.1062 350.526C61.7008 358.291 78.8643 362.388 96.2848 362.504H105.663C108.686 362.504 111.724 362.328 114.641 361.534C119.828 360.122 124.733 357.789 129.116 354.633C134.731 350.59 139.337 345.308 142.579 339.195C149.532 326.097 154.444 312.015 157.147 297.434C158.404 289.145 158.582 280.734 157.681 272.411C157.384 269.666 157.216 266.902 156.887 264.16C156.081 257.446 153.578 250.732 151.967 244.018C148.937 231.302 148.17 218.152 149.701 205.17C151.366 193.412 155.82 182.222 162.691 172.536C169.562 162.849 178.649 154.947 189.196 149.488C193.588 146.765 198.602 145.205 203.764 144.956C207.516 145.236 211.13 146.488 214.252 148.588C216.127 149.85 217.785 151.391 219.174 153.151C221.023 155.495 222.457 158.143 224.155 160.599C228.33 166.638 232.22 172.868 235.814 179.271C244.728 193.402 257.547 204.647 272.719 211.645C282.431 216.501 292.791 220.062 302.826 224.594C310.814 227.621 317.817 232.785 323.069 239.522C328.321 246.259 331.622 254.309 332.61 262.794C333.414 271.625 333.414 280.51 332.61 289.34C332.114 292.776 332.114 296.264 332.61 299.7C333.112 302.781 334.57 305.626 336.777 307.834C337.927 308.983 339.249 309.93 340.688 310.643C343.343 311.961 346.401 312.002 349.365 312.002H357.213C362.959 311.854 368.664 312.994 373.912 315.337C379.16 317.68 383.816 321.168 387.541 325.545C391.266 329.922 393.964 335.076 395.439 340.631C396.913 346.186 397.126 352 396.061 357.648C393.482 371.592 389.244 385.178 383.436 398.115C379.227 408.15 374.695 418.186 371.458 428.545C369.627 433.581 368.967 438.968 369.528 444.296C370.089 449.625 371.856 454.756 374.695 459.3C378.061 463.96 381.974 468.198 386.349 471.926C389.537 475.272 393.23 478.094 397.292 480.29C397.615 480.465 398.004 480.229 398.004 479.861Z" fill="white" fill-opacity="0.2"/>
<path d="M-12.1656 186.717V168.264C-12.1656 167.192 -11.296 166.322 -10.2232 166.322H3.04979C10.5196 166.521 17.9675 165.426 25.0636 163.085C39.2994 157.545 50.8803 146.775 57.4369 132.978C63.4011 121.213 66.7161 108.284 67.1489 95.1008C67.7964 85.8317 67.7964 76.5288 67.1489 67.2598C67.1736 57.688 66.1971 48.1399 64.2353 38.7713C63.4399 34.9954 61.68 31.4899 59.1269 28.5964C56.5739 25.703 53.3148 23.5203 49.6673 22.2609C41.5329 19.8473 33.1854 18.2212 24.7399 17.4049L6.61085 16.7575H-2.7774C-5.24913 16.439 -7.75151 16.439 -10.2232 16.7575L-nan -nanL-10.2232 16.7575H-12.6512C-13.9922 16.7575 -15.0792 15.6704 -15.0792 14.3295V5.91243C-15.0792 -0.0771184 -10.2237 -4.93262 -4.2342 -4.93262H73.3618C81.5846 -4.93262 89.6811 -1.61851 97.9035 -1.69529H104.702H105.254C107.44 -1.69529 109.589 -2.25238 111.5 -3.31395C113.411 -4.37553 115.561 -4.93262 117.747 -4.93262H142.899C143.974 -4.93262 144.845 -4.90891 144.845 -3.83428C144.845 -3.41606 144.711 -2.16094 144.458 -1.8277C139.802 4.31195 134.13 9.61247 127.687 13.8439L120.565 19.3473C114.968 22.8282 109.564 26.6107 104.378 30.678C96.6451 37.4965 91.2162 46.5447 88.839 56.5766C86.0795 67.1557 84.5585 78.0197 84.3067 88.9499L-nan -nanL84.3067 88.9499C83.5928 105.67 79.5191 122.075 72.3286 137.186C69.6232 142.376 66.3672 147.26 62.6166 151.754C48.9857 168.752 29.6698 180.249 8.22952 184.127L-11.1944 187.041M-11.5785 187.937C-11.3396 187.38 -10.83 186.985 -10.2308 186.894L7.90578 184.127C29.6765 180.414 49.3528 168.907 63.2641 151.754C67.0813 147.241 70.4429 142.361 73.2998 137.186C80.4907 121.96 84.5633 105.45 85.2779 88.6261C85.8328 77.7021 87.4592 66.8589 90.1339 56.2529C92.3976 46.5106 97.5953 37.6971 105.026 31.0017C112.148 25.1745 119.917 20.6423 127.687 15.4625C133.473 11.7049 138.659 7.10305 143.073 1.81413C143.987 0.718366 145.37 -1.03582 146.011 -2.31103C146.548 -3.37766 145.819 -4.93262 144.626 -4.93262H118.96C115.949 -4.93262 112.973 -4.3822 110.047 -3.67322C108.285 -3.24621 106.501 -2.91008 104.702 -2.66649C103.951 -2.54778 103.196 -2.4706 102.439 -2.43496C99.6356 -2.30289 96.7947 -2.41627 94.0022 -2.70033C88.6906 -3.24065 83.4716 -4.93262 78.1325 -4.93262L-12.8131 -4.93262C-15.0792 -4.93262 -15.0792 -4.93262 -15.0792 -2.66649V15.4009C-15.0792 16.4321 -14.4918 17.4703 -13.4606 17.4703C-12.8979 17.4703 -12.3431 17.337 -11.8419 17.0812L-nan -nanL-11.8419 17.0812C-9.36952 16.7731 -6.86845 16.7731 -4.39606 17.0812H6.61085H20.7557C23.4083 17.0812 26.0615 17.2511 28.672 17.722C35.8328 19.0135 42.8614 20.9659 49.6673 23.5559C53.0865 24.6891 56.1307 26.736 58.4702 29.475C60.8098 32.214 62.3556 35.5407 62.9403 39.095C64.8708 48.3592 65.8471 57.7967 65.8539 67.2598C66.5015 76.5288 66.5015 85.8317 65.8539 95.1008C65.6311 108.107 62.3012 120.872 56.142 132.33C49.6172 146.005 37.9961 156.58 23.7687 161.79C16.8951 164.128 9.66011 165.224 2.40233 165.027H-10.1804C-11.2772 165.027 -12.3638 164.703 -13.4606 164.703C-14.4667 164.703 -15.0792 165.682 -15.0792 166.689L-15.0792 186.07C-14.9726 186.839 -14.6381 187.558 -14.1188 188.135C-13.9346 188.34 -13.7301 188.523 -13.5093 188.683C-12.8131 189.187 -11.917 188.727 -11.5785 187.937Z" fill="white" fill-opacity="0.2"/>
<path d="M158.126 480.666C159.466 471.602 162.082 462.774 165.895 454.444C171.045 443.3 176.884 432.488 183.377 422.07L189.204 412.358C194.39 402.379 200.23 392.754 206.686 383.546C212.305 375.064 219.596 367.819 228.113 362.252C235.304 357.552 243.24 354.133 251.57 352.134C254.641 351.396 257.805 351.173 260.962 351.173H264.31C269.422 350.987 274.512 351.936 279.214 353.951C283.916 355.966 288.113 358.997 291.504 362.827C295.672 367.938 298.657 373.908 300.244 380.309C303.857 390.85 306.564 401.681 308.338 412.682L308.661 415.919C311.26 431.972 316.167 447.565 323.229 462.213C323.895 463.572 324.522 464.948 325.109 466.339C328.189 473.638 322.249 480.99 314.327 480.99H304.453C303.023 480.99 301.863 479.83 301.863 478.4V476.134C300.244 464.479 298.302 452.177 297.655 439.876V435.667C297.655 429.352 297.655 422.61 296.438 415.961C295.876 412.888 295.278 409.816 294.754 406.737C293.073 396.841 289.324 387.392 283.734 379.014C280.991 375.324 277.494 372.261 273.475 370.028C269.456 367.795 265.007 366.444 260.425 366.065H255.569C249.523 366.142 243.551 367.411 237.996 369.8C232.441 372.188 227.411 375.65 223.196 379.985C215.401 388.079 208.952 397.369 204.096 407.502L190.499 432.43C187.909 437.61 184.996 442.465 182.082 447.645C176.775 456.825 172.874 466.747 170.507 477.081C170.454 477.312 170.428 477.747 170.428 477.984C170.428 479.754 168.993 480.99 167.223 480.99H158.126M158.024 481.015C158.091 480.998 158.161 480.99 158.231 480.99H169.003C170.78 480.99 172.707 480.593 173.589 479.05C174.486 477.48 174.491 475.564 174.913 473.805C177.046 464.918 180.326 456.342 184.672 448.293C191.794 435.02 199.564 421.747 206.686 408.15C211.383 398.101 217.73 388.909 225.462 380.956C233.353 372.688 244.149 367.812 255.569 367.36H258.159C262.595 367.52 266.937 368.681 270.861 370.755C274.785 372.829 278.19 375.763 280.82 379.338C287.439 388.914 291.353 400.097 292.151 411.711C292.151 421.423 294.093 430.811 294.741 440.523C295.594 453.326 297.106 466.077 299.273 478.724C299.618 481.545 302.803 482.608 305.645 482.608H310.068C321.335 482.608 329.963 472.252 324.848 462.213C317.913 447.515 313.012 431.94 310.28 415.919C308.172 403.547 305.252 391.327 301.539 379.338C299.84 372.817 296.748 366.743 292.475 361.532C288.924 357.62 284.567 354.524 279.705 352.456C274.843 350.389 269.591 349.398 264.31 349.554H260.605C257.684 349.554 254.759 349.745 251.907 350.376C243.282 352.284 235.049 355.7 227.593 360.48C218.904 366.05 211.456 373.351 205.714 381.927C199.105 390.872 193.154 400.285 187.909 410.092C179.317 423.984 171.534 438.36 164.6 453.149C160.716 461.697 158.146 470.781 156.976 480.092C156.902 480.683 157.446 481.16 158.024 481.015Z" fill="white" fill-opacity="0.2"/>
<path d="M36.7337 480.665L33.8202 478.399C28.6592 473.122 21.7559 469.901 14.3962 469.335H-9.97534C-10.3439 469.335 -10.7107 469.4 -11.0721 469.472C-12.6634 469.789 -13.7685 468.228 -13.7685 466.605V427.932C-13.7685 426.125 -12.3034 424.66 -10.4961 424.66C-10.3041 424.66 -10.1124 424.643 -9.92332 424.609L4.36048 422.07C7.15699 421.749 9.98103 421.749 12.7775 422.07C22.4227 422.134 31.8107 425.187 39.6473 430.811C53.6955 439.822 64.9164 452.614 72.0206 467.716C74.6753 473.953 69.6841 480.342 62.9062 480.342H36.7337M36.5128 479.458C36.6427 479.977 37.1093 480.342 37.6446 480.342H61.2684C68.8938 480.342 74.524 473.179 71.6969 466.098C64.6645 450.777 53.4412 437.758 39.3236 428.545C31.368 422.636 21.716 419.457 11.8063 419.48C9.00983 419.159 6.18579 419.159 3.38928 419.48C-7.81942 421.348 -16.0347 431.046 -16.0347 442.409V464.043C-16.0347 466.252 -14.5857 468.443 -12.4247 467.985C-11.8058 467.853 -11.1784 467.716 -10.5457 467.716H-5.99896H8.56901H14.3962C21.1309 468.136 27.4651 471.015 32.2054 475.787C32.6408 476.225 33.1005 476.64 33.6002 477.003L36.0672 478.798C36.2887 478.959 36.4464 479.192 36.5128 479.458Z" fill="white" fill-opacity="0.2"/>
<path d="M456.586 480.665L459.823 471.601C464.153 458.985 467.721 446.121 470.506 433.077C471.908 425.15 473.965 417.354 476.657 409.768C478.775 404.307 481.844 399.265 485.722 394.876L494.463 385.812L499.642 380.632C510.123 369.865 516.532 355.787 517.771 340.813C519.714 320.741 522.951 300.346 525.865 282.541C527.101 274.5 527.857 266.392 528.131 258.261V254.053C529.336 244.722 531.73 235.583 535.253 226.859C536.814 221.869 539.904 217.496 544.087 214.358C548.27 211.221 553.334 209.479 558.562 209.377C561.145 209.377 563.74 209.574 566.214 210.318C571.402 211.88 576.239 214.463 580.436 217.93C585.633 222.223 589.685 227.738 592.23 233.981C597.408 244.03 600.388 255.065 600.971 266.354C600.971 269.592 600.971 272.505 600.971 275.419C601.082 284.096 601.84 292.753 603.237 301.318C606.507 319.374 616.59 335.484 631.402 346.316L637.553 350.525L648.559 358.942C653.139 362.424 656.902 366.865 659.586 371.954C662.27 377.042 663.81 382.656 664.099 388.402C664.778 394.101 664.778 399.86 664.099 405.559C663.54 409.136 661.96 412.476 659.548 415.175C657.135 417.875 653.994 419.819 650.502 420.775C645.951 422.468 641.109 423.238 636.258 423.041H611.006C599.368 424.625 588.272 428.953 578.633 435.667C568.558 441.953 559.859 450.212 553.058 459.947C552.506 460.75 551.974 461.565 551.463 462.393C546.448 470.521 538.383 477.104 528.832 477.104H516.086C514.955 477.104 513.835 476.382 514.009 475.264C514.086 474.763 514.157 474.251 514.092 473.749C513.889 472.174 513.929 470.576 514.21 469.011C514.523 465.349 514.523 461.666 514.21 458.004C514.21 455.86 514.21 453.495 511.823 452.193C510.69 451.574 509.35 451.529 508.059 451.529C506.867 451.62 505.706 451.954 504.648 452.51C503.59 453.067 502.658 453.835 501.909 454.767C496.699 460.161 492.626 466.546 489.93 473.543L-nan -nanL489.93 473.543C489.853 474.361 489.612 475.154 489.223 475.877C488.47 477.275 486.798 477.752 485.21 477.752H460.794M458.48 478.009C458.722 477.842 459.01 477.752 459.304 477.752H482.668C486.119 477.752 489.91 476.777 491.11 473.54C491.495 472.5 491.753 471.403 492.201 470.388C494.958 464.136 498.791 458.41 503.527 453.472C504.13 452.642 504.905 451.952 505.799 451.449C506.693 450.946 507.685 450.642 508.707 450.558H510.326C511.374 450.558 512.051 451.195 512.528 452.124C514.08 455.146 514.021 458.738 514.096 462.134C514.178 465.83 514.108 469.528 513.887 473.22C513.887 475.723 515.916 477.752 518.419 477.752H532.008C540.371 477.752 547.366 471.823 551.459 464.529C552.342 462.955 553.308 461.425 554.353 459.947C560.933 450.224 569.549 442.05 579.604 435.99C589.213 429.277 600.336 425.05 611.978 423.688H636.905C641.855 423.776 646.783 423.01 651.473 421.422C655.221 420.45 658.6 418.397 661.19 415.519C663.78 412.641 665.467 409.065 666.041 405.236C666.688 399.426 666.688 393.563 666.041 387.754C665.938 381.524 664.462 375.393 661.721 369.798C659.933 366.149 657.634 362.786 654.904 359.806C651.995 356.632 648.212 354.451 644.319 352.611L636.899 349.103C633.888 347.68 630.973 346.032 628.418 343.897C616.069 333.579 607.694 319.207 604.855 303.26C602.428 291.732 600.806 280.05 600 268.297C599.747 256.237 596.758 244.393 591.259 233.657C588.519 227.3 584.298 221.69 578.948 217.297C574.684 213.797 569.803 211.15 564.57 209.486C561.904 208.638 559.093 208.406 556.296 208.406C550.761 208.449 545.386 210.264 540.958 213.585C536.53 216.906 533.283 221.558 531.692 226.859C529.321 235.527 527.91 244.429 527.483 253.405C527.483 263.117 527.483 273.153 524.894 282.865C521.656 301.965 518.743 321.389 516.8 341.137C515.643 355.783 509.335 369.547 498.995 379.985L485.074 394.229C481.146 398.702 478.073 403.86 476.01 409.444C473.258 417.147 471.093 425.047 469.535 433.077C465.908 447.715 461.482 462.142 456.279 476.295C455.788 477.63 457.311 478.819 458.48 478.009Z" fill="white" fill-opacity="0.2"/>
<path d="M470.52 150.461C468.048 150.776 465.546 150.776 463.074 150.461C457.319 149.129 451.913 146.591 447.211 143.015C433.657 134.045 420.781 124.091 408.687 113.232C399.522 105.172 392.04 95.3807 386.673 84.4196C384.463 80.2285 382.517 75.9036 380.846 71.4702C379.166 65.7443 377.21 60.1038 374.984 54.5685C373.958 52.0156 372.691 49.5648 371.168 47.2732C366.432 40.1459 360.999 33.5028 354.947 27.4426C351.044 22.9925 347.371 18.3463 343.94 13.5221C338.913 6.07968 345.74 -2.34081 354.722 -2.34081H374.352C376.15 -2.34081 377.609 -1.41483 377.609 0.384027C377.609 0.586217 377.627 1.32026 377.665 1.51894C381.606 22.3948 386.667 43.0439 392.824 63.3769C395.9 74.6912 401.426 85.1907 409.011 94.1315C413.489 99.3171 418.728 103.793 424.55 107.405C432.749 112.721 441.885 116.41 451.46 118.282C453.152 118.612 454.876 118.735 456.599 118.735C460.741 118.675 464.716 117.089 467.762 114.282C470.808 111.475 472.712 107.643 473.11 103.52C473.756 97.3858 473.756 91.201 473.11 85.067V81.506C470.977 61.2025 473.184 40.6776 479.584 21.2917C481.973 15.0238 485.029 9.03204 488.698 3.41933C489.085 2.82765 489.296 2.13775 489.296 1.43087C489.296 0.866866 489.423 0.306864 489.709 -0.179379C489.912 -0.525149 490.13 -0.862083 490.36 -1.18937C491.576 -2.91529 493.702 -3.63574 495.813 -3.63574H525.555C528.058 -3.63574 530.087 -1.60658 530.087 0.896516C529.926 2.29477 529.926 3.70679 530.087 5.10504C530.919 16.554 532.651 27.9197 535.266 39.097C536.652 45.7487 535.497 52.6781 532.029 58.5209C526.75 68.6379 522.041 79.0424 517.926 89.6854C517.617 90.4839 517.461 91.3331 517.461 92.1891C517.461 94.332 517.108 96.4626 516.368 98.4736C512.079 110.129 506.701 121.357 500.303 132.008C497.097 136.89 493.168 141.257 488.649 144.958C486.141 147.027 483.247 148.58 480.135 149.524C477.024 150.469 473.756 150.787 470.52 150.461ZM470.881 150.642C470.79 150.596 470.822 150.458 470.924 150.456C476.282 150.348 481.47 148.537 485.735 145.281C490.542 141.665 494.608 137.159 497.714 132.008C505.516 119.473 511.921 106.12 516.814 92.1891C521.164 81.0736 526.247 70.2588 532.029 59.8159C535.45 53.3673 536.591 45.9518 535.266 38.7732C533.501 28.0734 532.635 17.2444 532.677 6.39997C532.677 0.8574 528.183 -3.63574 522.641 -3.63574H500.647C496.649 -3.63574 492.442 -2.47349 490.49 1.01602C489.835 2.18558 489.23 3.39144 488.493 4.51106C484.898 9.97629 481.91 15.8203 479.584 21.9391C473.236 41.5593 471.031 62.2842 473.11 82.8009C474.08 89.7815 474.08 96.8629 473.11 103.844C472.789 107.681 471.056 111.263 468.244 113.895C465.433 116.527 461.745 118.021 457.894 118.088C456.17 118.088 454.446 117.972 452.752 117.651C443.4 115.88 434.477 112.292 426.492 107.081C420.781 103.578 415.648 99.2092 411.277 94.1315C403.866 85.2441 398.456 74.8653 395.414 63.7007C389.571 44.0854 384.535 24.0666 380.307 3.64427C380.017 2.24807 380.012 0.906578 379.756 -0.496126C379.3 -3.00052 375.981 -3.31201 373.435 -3.31201H355.186C345.029 -3.31201 337.192 6.13985 342.969 14.4933C346.388 19.0166 350.063 23.3402 353.976 27.4426C360.455 34.8988 366.1 43.0404 370.81 51.7226C376.637 62.4057 380.846 73.7364 386.026 84.0958C391.496 95.1743 399.085 105.073 408.363 113.232C420.728 124 433.698 134.052 447.211 143.339C451.998 146.974 457.523 149.516 463.398 150.785C465.872 151.084 468.373 151.096 470.849 150.822C470.944 150.811 470.966 150.684 470.881 150.642Z" fill="white" fill-opacity="0.2"/>
<path d="M97.9351 -0.0766273L91.8687 -1.99233C91.8133 -2.00981 91.754 -2.01188 91.6973 -1.9996C91.3195 -1.91781 91.3341 -2.01902 91.7206 -2.01902H101.969C103.578 -2.01902 103.865 -0.294667 102.274 -0.0502243C100.843 0.169757 99.3914 0.269899 97.9351 0.247105L-nan -nanL97.9351 0.247105M97.9351 -0.239932C97.9351 0.0285835 98.1536 0.246224 98.4221 0.240197C99.6574 0.212463 100.885 0.107161 102.099 -0.0735536C106.135 -0.674534 105.144 -4.93262 101.063 -4.93262L89.8712 -4.93262C88.2148 -4.93262 87.2216 -3.18716 88.5373 -2.18097C89.3499 -1.55962 90.2757 -1.10592 91.2608 -0.844018C91.606 -0.752254 91.9639 -0.724093 92.3211 -0.724093H97.4509C97.7183 -0.724093 97.9351 -0.507326 97.9351 -0.239932Z" fill="white" fill-opacity="0.2"/>
<path d="M458.887 117.115H457.268C442.346 115.441 428.372 108.965 417.449 98.6618C404.08 85.8366 395.221 69.0278 392.198 50.7494L389.932 42.3324C383.507 17.7026 402.528 -4.93262 427.982 -4.93262H482.689C487.443 -4.93262 490.663 -0.144984 488.023 3.80817L486.081 6.39803C479.619 17.2645 475.64 29.4247 474.426 42.0086C472.955 50.342 472.305 58.7995 472.484 67.2598V80.2091C472.484 81.9191 472.484 83.7194 472.484 85.5623C472.484 88.8929 472.949 92.219 472.902 95.5492C472.871 97.694 472.571 99.833 472.003 101.915C470.994 105.614 469.167 109.038 466.657 111.935C465.435 113.182 463.973 114.169 462.359 114.836C460.746 115.504 459.014 115.839 457.268 115.82M456.904 116.366C457.118 116.046 457.523 115.917 457.889 116.034C459.891 116.676 462.01 116.878 464.102 116.623C468.669 116.066 472.245 112.456 474.012 108.207C474.611 106.765 475.084 105.269 475.422 103.735C475.821 101.929 476.028 100.092 476.044 98.2531C476.081 94.1899 475.426 90.1365 475.368 86.0735C475.31 82.0189 475.136 77.9643 474.617 73.9097C474.186 70.5433 473.71 67.1702 473.777 63.777C473.907 57.1303 474.557 50.5014 475.721 43.951C476.902 31.6605 480.636 19.7547 486.681 8.99448C486.926 8.55805 487.21 8.14333 487.514 7.74577C491.796 2.14955 487.014 -4.93262 479.968 -4.93262L430.666 -4.93262C403.005 -4.93262 381.954 20.1217 389.48 46.7391C389.736 47.6449 389.995 48.55 390.256 49.4545C393.433 67.9377 402.387 84.9384 415.831 98.0144C426.998 108.279 441.076 114.816 456.114 116.728C456.425 116.768 456.73 116.627 456.904 116.366Z" fill="white" fill-opacity="0.2"/>
<path d="M10.1719 148.194C7.33514 148.202 4.50316 148.023 1.69417 147.66C-2.38458 147.133 -6.47186 146.575 -10.5845 146.575H-13.4606C-14.3545 146.575 -15.0792 145.85 -15.0792 144.956V125.924C-15.0792 124.098 -13.5995 122.619 -11.7742 122.619C-11.3906 122.619 -11.0102 122.686 -10.6486 122.814C-5.26484 124.721 0.302052 126.066 5.96339 126.827H10.8194C13.1897 126.827 15.5853 126.729 17.8393 125.996C21.8864 124.679 25.5057 122.24 28.2564 118.93C31.7705 114.701 33.6272 109.339 33.4807 103.842C34.0818 95.1694 31.4301 86.5837 26.0432 79.7602C20.6562 72.9367 12.9203 68.3649 4.34472 66.9368C0.899079 66.6148 -2.56908 66.6148 -6.01472 66.9368H-11.1944C-11.1944 66.9368 -13.7843 65.7772 -13.7843 64.3469V53.6132C-13.7843 46.4228 -8.06769 40.4581 -0.892151 40.9202C5.65351 41.3417 12.165 42.2459 18.589 43.628C26.1965 45.0617 33.2086 48.7174 38.74 54.1335C44.2713 59.5496 48.0738 66.4832 49.6673 74.0589C53.196 87.317 53.196 101.267 49.6673 114.525C48.171 122.559 44.2775 129.952 38.499 135.73C32.7205 141.509 25.3279 145.402 17.294 146.899C14.9319 147.235 12.534 147.235 10.1719 146.899M10.1719 145.749C10.1719 146.406 10.6601 146.965 11.3152 147.023C13.4132 147.21 15.5265 147.168 17.6178 146.899C25.5628 145.203 32.8471 141.244 38.5916 135.499C44.3362 129.755 48.2952 122.47 49.991 114.525C53.339 101.121 53.2276 87.0851 49.6673 73.7351C48.3781 66.0823 44.9155 58.9615 39.6923 53.2217C34.469 47.4818 27.7054 43.365 20.2076 41.3619C9.58174 39.0348 -1.29501 38.0559 -12.1656 38.4483C-13.7748 38.4483 -15.0792 39.7527 -15.0792 41.3619V64.9944C-15.0792 68.3147 -8.68164 66.613 -5.36132 66.613H1.55833C3.1972 66.613 4.84032 66.7222 6.432 67.1127C13.897 68.9439 20.548 73.2601 25.2666 79.3889C30.4876 86.1702 32.9585 94.6714 32.1857 103.195C32.2687 108.334 30.5243 113.335 27.2634 117.307C24.7603 120.356 21.4886 122.647 17.8162 123.963C15.5859 124.763 13.1886 124.885 10.8194 124.885L5.96339 124.561C0.511941 123.85 -4.84452 122.545 -10.0107 120.671C-10.5806 120.464 -11.1813 120.353 -11.7876 120.353H-12.1198C-12.7861 120.353 -13.4418 120.092 -14.108 120.092C-14.7374 120.092 -15.0792 120.74 -15.0792 121.37L-15.0792 133.949C-15.0792 139.671 -10.4412 144.309 -4.71979 144.309C-0.245148 144.74 4.25754 144.781 8.73759 144.434C9.50707 144.374 10.1719 144.977 10.1719 145.749Z" fill="white" fill-opacity="0.2"/>
<path d="M11.1431 126.504C4.05287 126.246 -2.94672 124.824 -9.57578 122.296L-nan -nanL-9.57578 122.296L-12.5684 121.768C-14.0206 121.512 -15.0792 120.25 -15.0792 118.775V74.7072C-15.0792 70.595 -11.7456 67.2614 -7.63339 67.2614C-2.69015 66.6209 2.31507 66.6209 7.25832 67.2614C11.4508 68.3278 15.387 70.2237 18.8344 72.8371C22.2818 75.4504 25.1705 78.7282 27.3297 82.4768C29.8789 86.6536 31.5143 91.323 32.1281 96.1776C32.7419 101.032 32.3202 105.962 30.8908 110.642C29.7825 114.727 27.3909 118.348 24.0685 120.971C20.7462 123.594 16.669 125.08 12.438 125.21L-nan -nanL12.438 125.21M11.8208 127.061C12.1922 125.947 13.2179 125.198 14.3823 125.046C18.1879 124.551 21.803 123.038 24.8377 120.65C28.3855 117.858 30.9578 114.015 32.1857 109.67C34.2023 100.757 32.7471 91.4102 28.1163 83.5318C24.2185 76.9006 18.3175 71.729 11.3181 68.7229C8.67752 67.5889 5.82963 67.0227 2.96008 66.8666C-0.572701 66.6744 -4.11871 66.806 -7.63339 67.2614C-11.7456 67.2614 -15.0792 70.595 -15.0792 74.7072V117.516C-15.0792 120.46 -13.4628 123.166 -10.8707 124.562C-4.47591 126.934 2.21242 128.411 9.00454 128.954C10.2671 129.055 11.4203 128.263 11.8208 127.061Z" fill="white" fill-opacity="0.2"/>
<path d="M189.534 342.758C185.002 342.758 182.736 339.521 182.412 333.37C182.308 328.734 182.644 324.105 183.411 319.543C184.225 314.705 184.832 309.777 186.102 305.038C187.22 300.865 188.958 296.658 190.181 292.579C192.124 286.105 193.742 280.925 195.037 275.098C197.646 261.953 197.646 248.424 195.037 235.279C194.755 231.291 194.755 227.288 195.037 223.301C195.037 217.838 197.336 214.418 201.025 213.721C201.983 213.54 202.965 213.475 203.938 213.405C206.185 213.244 208.316 214.223 210.137 215.549C212.761 217.461 215.285 219.508 217.699 221.682C226.116 227.509 234.856 232.689 243.597 237.545L248.13 240.135C255.403 243.708 262.068 248.405 267.877 254.055C270.453 256.194 272.539 258.862 273.991 261.879C275.444 264.895 276.229 268.189 276.294 271.537C276.401 275.606 275.682 279.656 274.18 283.439C272.677 287.223 270.423 290.663 267.553 293.551C260.563 300.314 252.597 305.988 243.921 310.385C233.238 317.831 221.583 325.276 211.548 332.722C207.224 335.633 202.593 338.052 197.741 339.935C195.542 340.789 193.188 341.139 190.829 341.139M190.343 343.729C190.625 342.228 191.936 341.139 193.464 341.139H194.144C194.522 341.139 194.898 341.086 195.26 340.978C200.934 339.281 206.399 336.946 211.548 334.017L245.54 311.356C253.149 306.671 260.115 301.011 266.259 294.522C269.415 291.513 271.931 287.897 273.656 283.892C275.38 279.886 276.278 275.574 276.294 271.213C276.133 264.744 273.463 258.591 268.848 254.055C263.046 247.908 256.263 242.766 248.777 238.84C238.418 233.013 228.058 227.509 218.346 220.711C216.003 218.963 213.544 217.376 210.988 215.961C209.232 214.989 207.315 214.236 205.308 214.274C203.633 214.305 201.925 214.428 200.317 214.9C196.602 215.989 194.334 219.667 194.066 225.567C193.746 229.553 193.746 233.559 194.066 237.545C196.657 250.583 196.657 264.003 194.066 277.04C191.153 289.666 186.62 301.644 184.03 314.27C182.212 321.243 181.341 328.43 181.441 335.636C181.441 341.474 183.616 344.92 187.254 345.972C188.721 346.397 190.062 345.231 190.343 343.729Z" fill="white" fill-opacity="0.2"/>
<path d="M429.762 66.6149C428.289 66.6149 426.817 66.186 425.77 65.1506C424.652 64.0458 423.712 62.7675 422.99 61.3608C421.921 59.2797 421.358 56.9762 421.345 54.6368C421.239 52.832 421.533 51.026 422.204 49.3474C422.588 48.3865 423.091 47.4808 423.699 46.6506C424.601 45.4187 425.976 44.4586 427.495 44.6108C428.378 44.6993 429.244 44.9626 430.089 45.2328C431.119 45.5618 432.082 46.0801 432.928 46.765C434.122 47.7312 435.04 48.9946 435.59 50.4283C436.931 53.1624 437.402 56.2421 436.939 59.2521C436.645 61.1645 435.982 62.9903 435 64.633C433.881 66.5033 431.798 68.0408 429.762 67.2624M431.381 66.6149C431.112 66.7225 431.182 66.9621 431.451 66.8551C431.671 66.7677 431.887 66.6675 432.096 66.5548C433.534 65.7803 434.63 64.4874 435.663 63.2213C437.159 61.3864 438.232 59.2313 438.791 56.9094C439.543 53.788 439.329 50.5122 438.179 47.5147C437.531 45.9618 436.514 44.5902 435.217 43.5185C434.582 42.9935 433.888 42.5482 433.152 42.1902C431.621 41.4451 429.835 41.2667 428.217 41.7988C426.556 42.3452 425.238 43.6123 424.319 45.1003C423.613 46.2456 423.049 47.4776 422.646 48.7686C421.979 50.8997 421.76 53.1456 422.003 55.3651C422.247 57.5847 422.947 59.73 424.059 61.666C424.681 62.7481 425.424 63.7518 426.272 64.6585C427.6 66.079 429.498 67.1012 431.381 66.6149Z" fill="white" fill-opacity="0.2"/>
<path d="M206.676 4.45563C204.56 4.37251 202.529 3.60003 200.893 2.25584C199.309 0.955025 198.179 -0.812188 197.661 -2.79149C197.627 -2.92316 197.611 -3.05898 197.611 -3.19507C197.611 -4.15469 198.389 -4.93262 199.349 -4.93262H208.86C214.566 -4.93262 217.352 1.23908 212.135 3.55082C211.739 3.72646 211.319 3.85939 210.891 3.92339C209.599 4.11619 208.281 4.07778 207 3.80817M206.214 4.98669C206.666 4.30842 207.542 4.07049 208.311 4.34291C209.033 4.59911 209.774 4.8004 210.528 4.94496C211.185 5.07101 211.863 4.99396 212.484 4.74653C212.751 4.64042 213.015 4.52978 213.277 4.41471C219.055 1.87657 215.913 -4.93262 209.602 -4.93262L197.37 -4.93262C196.252 -4.93262 195.345 -4.02599 195.345 -2.90761C195.345 -2.74743 195.364 -2.58757 195.405 -2.43273C196 -0.183379 197.294 1.82157 199.104 3.29151C200.737 4.6186 202.711 5.44552 204.789 5.68402C205.357 5.74912 205.897 5.46178 206.214 4.98669Z" fill="white" fill-opacity="0.2"/>
<path d="M94.3845 302.938C91.8339 303.459 89.2572 302.516 86.8953 301.421C81.4288 298.888 76.4099 295.465 72.0469 291.284C63.6299 284.161 54.5654 277.363 45.5008 270.888L30.2854 258.91C28.5283 257.714 26.9097 256.333 25.4558 254.795C23.3097 252.524 21.2831 250.099 19.6371 247.443C18.8625 246.193 18.213 244.866 17.7004 243.479C16.6432 240.619 16.1916 237.571 16.3742 234.527C16.5568 231.484 17.3696 228.511 18.7612 225.798C19.3495 224.652 20.0359 223.562 20.8109 222.54C22.9256 219.753 25.5352 217.363 28.0084 214.889C30.7792 212.116 33.8183 209.62 37.0838 207.437L74.1974 180.791C74.6936 180.435 75.2891 180.243 75.8999 180.243C76.5499 180.243 77.1794 180.024 77.701 179.636C80.4475 177.593 83.4171 175.875 86.5504 174.513C88.91 173.487 91.4879 173.121 94.0607 173.121C98.2693 173.121 100.859 175.711 102.802 180.567C105.608 188.563 106.818 197.032 106.363 205.494C106.363 213.911 106.363 222.652 106.363 230.746V236.896C105.581 245.944 105.581 255.042 106.363 264.09C106.363 266.032 106.363 267.975 106.363 269.917C107.337 276.898 107.337 283.979 106.363 290.96C105.951 293.373 105.071 295.683 103.773 297.758C102.819 299.411 101.452 300.787 99.8063 301.751C98.1605 302.716 96.2921 303.237 94.3845 303.262M94.3845 303.741C94.3845 303.474 94.5971 303.257 94.8632 303.24C96.8474 303.114 98.7783 302.533 100.505 301.539C102.37 300.465 103.938 298.943 105.068 297.111C106.264 294.758 107.136 292.253 107.658 289.665C108.95 280.755 108.95 271.705 107.658 262.795C107.01 253.742 107.01 244.654 107.658 235.602C107.658 225.242 107.658 214.883 107.658 203.228C108.114 194.66 106.905 186.085 104.096 177.977C103.595 175.659 102.337 173.574 100.52 172.05C98.7029 170.526 96.4305 169.65 94.0607 169.56C91.2756 169.56 88.4886 169.987 85.9463 171.124C82.4058 172.709 79.0468 174.68 75.9317 177.006C62.6587 189.308 49.7094 198.372 36.4363 208.084C31.5209 211.245 27.056 215.056 23.1633 219.415C18.8399 223.585 16.2407 229.227 15.881 235.223C15.5212 241.219 17.4271 247.131 21.2209 251.788C23.6136 254.885 26.4498 257.612 29.6379 259.881C43.2347 270.565 57.8027 280.277 71.0757 292.255C76.3839 297.391 82.6809 301.39 89.5816 304.011C89.9739 304.16 90.3907 304.233 90.8104 304.233H93.8925C94.1642 304.233 94.3845 304.013 94.3845 303.741Z" fill="white" fill-opacity="0.2"/>
<path d="M445.607 275.744C440.377 275.309 435.3 273.764 430.715 271.212C420.813 265.738 411.67 258.99 403.522 251.14C395.349 242.741 389.059 232.699 385.069 221.681C378.828 204.133 369.751 187.729 358.199 173.121C356.515 170.877 355.02 168.5 353.73 166.014C352.518 163.677 351.075 161.339 350.791 158.722C350.756 158.398 350.738 158.071 350.738 157.743C350.738 156.088 351.191 154.465 352.048 153.049C352.907 151.816 354.081 150.835 355.447 150.209C356.814 149.583 358.323 149.334 359.818 149.488L-nan -nanL359.818 149.488C366.605 150.116 373.148 152.334 378.918 155.963C388.996 162.466 398.051 170.43 405.788 179.595C416.567 193.113 428.02 206.078 440.103 218.443L445.93 224.27C449.73 227.585 453.299 231.154 456.614 234.954C460.1 238.665 462.749 243.081 464.383 247.903C465.271 250.741 465.557 253.732 465.223 256.687C464.888 259.641 463.941 262.493 462.441 265.061C461.063 267.514 459.207 269.667 456.983 271.391C454.759 273.114 452.211 274.375 449.492 275.096L-nan -nanL449.492 275.096H445.607M445.297 276.954C445.476 275.882 446.403 275.096 447.49 275.096H449.484C449.918 275.096 450.352 275.037 450.765 274.904C456.407 273.082 461.152 269.173 464.019 263.965C466.992 258.566 467.705 252.208 466.002 246.284C464.338 241.211 461.574 236.569 457.909 232.688C452.729 226.86 446.902 221.681 441.398 216.177C429.096 203.875 418.089 190.926 407.083 177.653C399.596 167.978 390.508 159.657 380.213 153.049C374.439 149.134 367.744 146.791 360.789 146.251L-nan -nanL360.789 146.251C359.087 146.09 357.373 146.397 355.833 147.139C354.292 147.88 352.984 149.029 352.048 150.459C351.004 152.045 350.447 153.902 350.447 155.801C350.447 155.833 350.447 155.866 350.448 155.898C350.484 159.594 352.638 162.928 354.437 166.158C355.54 168.14 356.798 170.035 358.199 171.826C369.349 186.961 377.985 203.795 383.774 221.681C387.334 233.686 393.527 244.746 401.903 254.054C410.052 262.045 419.322 268.807 429.42 274.125C433.591 276.511 438.173 278.077 442.918 278.749C444.067 278.911 445.106 278.099 445.297 276.954Z" fill="white" fill-opacity="0.2"/>
</g>
<defs>
<linearGradient id="paint0_linear_1_493" x1="233.855" y1="-0.00170898" x2="233.855" y2="924.349" gradientUnits="userSpaceOnUse">
<stop stop-color="#FA846A"/>
<stop offset="1" stop-color="#D03B1A"/>
</linearGradient>
</defs>
</svg>
